STARTFONT 2.1
COMMENT
COMMENT Converted from OpenType font "ChivoMono-Bold.ttf" by "otf2bdf 3.0".
COMMENT
FONT -FreeType-chivo mono-Bold-R-Normal--14-100-100-100-P-72-ISO10646-1
SIZE 10 100 100
FONTBOUNDINGBOX 11 21 -1 -5
STARTPROPERTIES 19
FOUNDRY "FreeType"
FAMILY_NAME "chivo mono"
WEIGHT_NAME "Bold"
SLANT "R"
SETWIDTH_NAME "Normal"
ADD_STYLE_NAME ""
PIXEL_SIZE 14
POINT_SIZE 100
RESOLUTION_X 100
RESOLUTION_Y 100
SPACING "P"
AVERAGE_WIDTH 72
CHARSET_REGISTRY "ISO10646"
CHARSET_ENCODING "1"
FONT_ASCENT 13
FONT_DESCENT 3
COPYRIGHT "Copyright 2018 The Chivo Project Authors (https://github.com/Omnibus-Type/Chivo)"
_OTF_FONTFILE "ChivoMono-Bold.ttf"
_OTF_PSNAME "ChivoMono-Bold"
ENDPROPERTIES
CHARS 642
STARTCHAR 000D
ENCODING 13
SWIDTH 576 0
DWIDTH 8 0
BBX 0 0 0 0
BITMAP
ENDCHAR
STARTCHAR 0020
ENCODING 32
SWIDTH 576 0
DWIDTH 8 0
BBX 0 0 0 0
BITMAP
ENDCHAR
STARTCHAR 0021
ENCODING 33
SWIDTH 576 0
DWIDTH 8 0
BBX 2 10 3 0
BITMAP
C0
C0
C0
C0
C0
C0
C0
00
C0
C0
ENDCHAR
STARTCHAR 0022
ENCODING 34
SWIDTH 576 0
DWIDTH 8 0
BBX 4 4 2 6
BITMAP
D0
D0
D0
90
ENDCHAR
STARTCHAR 0023
ENCODING 35
SWIDTH 576 0
DWIDTH 8 0
BBX 8 10 0 0
BITMAP
13
12
12
7F
36
24
FF
FF
6C
4C
ENDCHAR
STARTCHAR 0024
ENCODING 36
SWIDTH 576 0
DWIDTH 8 0
BBX 7 12 1 -1
BITMAP
30
10
FC
CE
C0
F8
7C
0E
C6
FC
38
30
ENDCHAR
STARTCHAR 0025
ENCODING 37
SWIDTH 576 0
DWIDTH 8 0
BBX 8 10 0 0
BITMAP
41
A3
B2
B4
E8
07
15
25
45
C7
ENDCHAR
STARTCHAR 0026
ENCODING 38
SWIDTH 576 0
DWIDTH 8 0
BBX 8 10 0 0
BITMAP
18
78
62
62
7F
7F
E6
E6
7E
3E
ENDCHAR
STARTCHAR 0027
ENCODING 39
SWIDTH 576 0
DWIDTH 8 0
BBX 2 4 3 6
BITMAP
C0
C0
C0
40
ENDCHAR
STARTCHAR 0028
ENCODING 40
SWIDTH 576 0
DWIDTH 8 0
BBX 3 12 3 -2
BITMAP
20
60
40
C0
C0
C0
C0
C0
C0
C0
40
60
ENDCHAR
STARTCHAR 0029
ENCODING 41
SWIDTH 576 0
DWIDTH 8 0
BBX 4 12 2 -2
BITMAP
80
40
60
60
20
30
30
30
20
60
60
C0
ENDCHAR
STARTCHAR 002A
ENCODING 42
SWIDTH 576 0
DWIDTH 8 0
BBX 6 6 1 4
BITMAP
30
10
DC
38
38
48
ENDCHAR
STARTCHAR 002B
ENCODING 43
SWIDTH 576 0
DWIDTH 8 0
BBX 7 7 1 0
BITMAP
30
30
30
FE
30
30
30
ENDCHAR
STARTCHAR 002C
ENCODING 44
SWIDTH 576 0
DWIDTH 8 0
BBX 2 5 3 -3
BITMAP
C0
C0
40
40
80
ENDCHAR
STARTCHAR 002D
ENCODING 45
SWIDTH 576 0
DWIDTH 8 0
BBX 4 2 2 3
BITMAP
F0
F0
ENDCHAR
STARTCHAR 002E
ENCODING 46
SWIDTH 576 0
DWIDTH 8 0
BBX 2 2 3 0
BITMAP
C0
C0
ENDCHAR
STARTCHAR 002F
ENCODING 47
SWIDTH 576 0
DWIDTH 8 0
BBX 8 12 0 -2
BITMAP
01
03
02
06
0C
08
18
10
30
20
60
C0
ENDCHAR
STARTCHAR 0030
ENCODING 48
SWIDTH 576 0
DWIDTH 8 0
BBX 7 10 1 0
BITMAP
38
FC
CE
C6
C6
C6
C6
CE
FC
78
ENDCHAR
STARTCHAR 0031
ENCODING 49
SWIDTH 576 0
DWIDTH 8 0
BBX 7 10 1 0
BITMAP
10
70
F0
30
30
30
30
30
FE
FE
ENDCHAR
STARTCHAR 0032
ENCODING 50
SWIDTH 576 0
DWIDTH 8 0
BBX 7 10 1 0
BITMAP
38
FC
CE
CE
0C
1C
38
E0
FE
FE
ENDCHAR
STARTCHAR 0033
ENCODING 51
SWIDTH 576 0
DWIDTH 8 0
BBX 8 10 0 0
BITMAP
1C
7E
67
07
1E
1E
07
C3
7F
3E
ENDCHAR
STARTCHAR 0034
ENCODING 52
SWIDTH 576 0
DWIDTH 8 0
BBX 8 10 0 0
BITMAP
18
1A
36
36
66
46
FF
FF
06
06
ENDCHAR
STARTCHAR 0035
ENCODING 53
SWIDTH 576 0
DWIDTH 8 0
BBX 7 10 1 0
BITMAP
FC
FC
C0
C0
FC
CE
06
CE
FC
78
ENDCHAR
STARTCHAR 0036
ENCODING 54
SWIDTH 576 0
DWIDTH 8 0
BBX 7 10 1 0
BITMAP
38
7C
CE
C0
FC
EE
C6
C6
EE
7C
ENDCHAR
STARTCHAR 0037
ENCODING 55
SWIDTH 576 0
DWIDTH 8 0
BBX 7 10 1 0
BITMAP
FE
FE
0C
18
18
30
30
70
70
70
ENDCHAR
STARTCHAR 0038
ENCODING 56
SWIDTH 576 0
DWIDTH 8 0
BBX 7 10 1 0
BITMAP
30
FC
CC
CC
FC
7C
CE
C6
EE
7C
ENDCHAR
STARTCHAR 0039
ENCODING 57
SWIDTH 576 0
DWIDTH 8 0
BBX 8 10 0 0
BITMAP
18
7E
66
E7
67
7F
17
67
7E
3C
ENDCHAR
STARTCHAR 003A
ENCODING 58
SWIDTH 576 0
DWIDTH 8 0
BBX 2 7 3 0
BITMAP
C0
C0
00
00
00
C0
C0
ENDCHAR
STARTCHAR 003B
ENCODING 59
SWIDTH 576 0
DWIDTH 8 0
BBX 2 10 3 -3
BITMAP
C0
C0
00
00
00
C0
C0
40
40
80
ENDCHAR
STARTCHAR 003C
ENCODING 60
SWIDTH 576 0
DWIDTH 8 0
BBX 8 7 0 0
BITMAP
03
1F
78
C0
78
0F
03
ENDCHAR
STARTCHAR 003D
ENCODING 61
SWIDTH 576 0
DWIDTH 8 0
BBX 7 5 1 1
BITMAP
FE
FE
00
FE
FE
ENDCHAR
STARTCHAR 003E
ENCODING 62
SWIDTH 576 0
DWIDTH 8 0
BBX 7 7 1 0
BITMAP
80
F0
3E
06
3C
F0
80
ENDCHAR
STARTCHAR 003F
ENCODING 63
SWIDTH 576 0
DWIDTH 8 0
BBX 7 10 1 0
BITMAP
38
FC
CE
CE
0C
18
30
00
30
30
ENDCHAR
STARTCHAR 0040
ENCODING 64
SWIDTH 576 0
DWIDTH 8 0
BBX 8 12 0 -2
BITMAP
1C
62
41
BD
B7
87
BF
B7
B7
BF
40
3C
ENDCHAR
STARTCHAR 0041
ENCODING 65
SWIDTH 576 0
DWIDTH 8 0
BBX 8 10 0 0
BITMAP
1C
3C
3C
3C
36
66
7E
7F
E3
C3
ENDCHAR
STARTCHAR 0042
ENCODING 66
SWIDTH 576 0
DWIDTH 8 0
BBX 7 10 1 0
BITMAP
F8
FC
CE
CE
FC
FC
C6
C6
FE
FC
ENDCHAR
STARTCHAR 0043
ENCODING 67
SWIDTH 576 0
DWIDTH 8 0
BBX 8 10 0 0
BITMAP
1C
7E
67
E3
E0
E0
E3
E3
7E
3C
ENDCHAR
STARTCHAR 0044
ENCODING 68
SWIDTH 576 0
DWIDTH 8 0
BBX 7 10 1 0
BITMAP
F0
FC
CE
C6
C6
C6
C6
C6
FE
FC
ENDCHAR
STARTCHAR 0045
ENCODING 69
SWIDTH 576 0
DWIDTH 8 0
BBX 7 10 1 0
BITMAP
FE
FC
C0
C0
FC
FC
C0
C0
FC
FE
ENDCHAR
STARTCHAR 0046
ENCODING 70
SWIDTH 576 0
DWIDTH 8 0
BBX 6 10 1 0
BITMAP
FC
FC
C0
C0
FC
FC
C0
C0
C0
C0
ENDCHAR
STARTCHAR 0047
ENCODING 71
SWIDTH 576 0
DWIDTH 8 0
BBX 8 10 0 0
BITMAP
1C
7E
67
E3
E0
EF
E3
E3
7F
3D
ENDCHAR
STARTCHAR 0048
ENCODING 72
SWIDTH 576 0
DWIDTH 8 0
BBX 7 10 1 0
BITMAP
CE
CE
CE
CE
FE
FE
CE
CE
CE
CE
ENDCHAR
STARTCHAR 0049
ENCODING 73
SWIDTH 576 0
DWIDTH 8 0
BBX 6 10 1 0
BITMAP
FC
FC
30
30
30
30
30
30
FC
FC
ENDCHAR
STARTCHAR 004A
ENCODING 74
SWIDTH 576 0
DWIDTH 8 0
BBX 6 10 1 0
BITMAP
0C
0C
0C
0C
0C
0C
0C
CC
FC
78
ENDCHAR
STARTCHAR 004B
ENCODING 75
SWIDTH 576 0
DWIDTH 8 0
BBX 7 10 1 0
BITMAP
C6
CE
CC
D8
F8
F8
F8
DC
CC
CE
ENDCHAR
STARTCHAR 004C
ENCODING 76
SWIDTH 576 0
DWIDTH 8 0
BBX 7 10 1 0
BITMAP
C0
C0
C0
C0
C0
C0
C0
C0
FC
FE
ENDCHAR
STARTCHAR 004D
ENCODING 77
SWIDTH 576 0
DWIDTH 8 0
BBX 7 10 1 0
BITMAP
CE
CE
EE
EE
BE
B6
B6
B6
B6
B6
ENDCHAR
STARTCHAR 004E
ENCODING 78
SWIDTH 576 0
DWIDTH 8 0
BBX 7 10 1 0
BITMAP
CE
CE
EE
EE
FE
FE
DE
DE
CE
CE
ENDCHAR
STARTCHAR 004F
ENCODING 79
SWIDTH 576 0
DWIDTH 8 0
BBX 8 10 0 0
BITMAP
1C
7E
67
E3
E3
E3
E3
E3
7F
3E
ENDCHAR
STARTCHAR 0050
ENCODING 80
SWIDTH 576 0
DWIDTH 8 0
BBX 7 10 1 0
BITMAP
F8
FE
CE
C6
CE
FC
C0
C0
C0
C0
ENDCHAR
STARTCHAR 0051
ENCODING 81
SWIDTH 576 0
DWIDTH 8 0
BBX 8 12 0 -2
BITMAP
1C
7E
67
E3
E3
E3
E3
E3
7F
3E
1D
0F
ENDCHAR
STARTCHAR 0052
ENCODING 82
SWIDTH 576 0
DWIDTH 8 0
BBX 8 10 1 0
BITMAP
F8
FE
CE
C6
CE
FC
CE
C6
C6
C7
ENDCHAR
STARTCHAR 0053
ENCODING 83
SWIDTH 576 0
DWIDTH 8 0
BBX 8 10 0 0
BITMAP
1C
7E
63
E0
7C
3F
07
C3
7F
3E
ENDCHAR
STARTCHAR 0054
ENCODING 84
SWIDTH 576 0
DWIDTH 8 0
BBX 8 10 0 0
BITMAP
FF
FF
18
18
18
18
18
18
18
18
ENDCHAR
STARTCHAR 0055
ENCODING 85
SWIDTH 576 0
DWIDTH 8 0
BBX 7 10 1 0
BITMAP
C6
C6
C6
C6
C6
C6
C6
CE
FC
7C
ENDCHAR
STARTCHAR 0056
ENCODING 86
SWIDTH 576 0
DWIDTH 8 0
BBX 8 10 0 0
BITMAP
C3
E3
63
66
66
76
36
3C
3C
1C
ENDCHAR
STARTCHAR 0057
ENCODING 87
SWIDTH 576 0
DWIDTH 8 0
BBX 8 10 0 0
BITMAP
C9
DB
DB
DB
DF
7F
7F
77
76
66
ENDCHAR
STARTCHAR 0058
ENCODING 88
SWIDTH 576 0
DWIDTH 8 0
BBX 8 10 0 0
BITMAP
E3
66
76
3C
3C
3C
3C
7E
67
E7
ENDCHAR
STARTCHAR 0059
ENCODING 89
SWIDTH 576 0
DWIDTH 8 0
BBX 8 10 0 0
BITMAP
E3
67
66
36
3C
3C
18
18
18
18
ENDCHAR
STARTCHAR 005A
ENCODING 90
SWIDTH 576 0
DWIDTH 8 0
BBX 8 10 0 0
BITMAP
7F
7F
0E
0C
1C
18
38
70
7F
FF
ENDCHAR
STARTCHAR 005B
ENCODING 91
SWIDTH 576 0
DWIDTH 8 0
BBX 3 12 3 -2
BITMAP
E0
C0
C0
C0
C0
C0
C0
C0
C0
C0
C0
E0
ENDCHAR
STARTCHAR 005C
ENCODING 92
SWIDTH 576 0
DWIDTH 8 0
BBX 8 12 0 -2
BITMAP
C0
40
60
20
30
10
18
0C
04
06
02
03
ENDCHAR
STARTCHAR 005D
ENCODING 93
SWIDTH 576 0
DWIDTH 8 0
BBX 3 12 2 -2
BITMAP
E0
60
60
60
60
60
60
60
60
60
60
E0
ENDCHAR
STARTCHAR 005E
ENCODING 94
SWIDTH 576 0
DWIDTH 8 0
BBX 7 7 1 0
BITMAP
30
38
78
68
4C
C4
86
ENDCHAR
STARTCHAR 005F
ENCODING 95
SWIDTH 576 0
DWIDTH 8 0
BBX 7 1 1 -2
BITMAP
FE
ENDCHAR
STARTCHAR 0060
ENCODING 96
SWIDTH 576 0
DWIDTH 8 0
BBX 3 3 3 8
BITMAP
C0
C0
60
ENDCHAR
STARTCHAR 0061
ENCODING 97
SWIDTH 576 0
DWIDTH 8 0
BBX 7 7 1 0
BITMAP
7C
CC
0C
FC
CC
CC
FE
ENDCHAR
STARTCHAR 0062
ENCODING 98
SWIDTH 576 0
DWIDTH 8 0
BBX 7 10 1 0
BITMAP
C0
C0
C0
FC
EE
C6
C6
C6
EC
FC
ENDCHAR
STARTCHAR 0063
ENCODING 99
SWIDTH 576 0
DWIDTH 8 0
BBX 6 7 1 0
BITMAP
78
CC
CC
C0
C4
CC
78
ENDCHAR
STARTCHAR 0064
ENCODING 100
SWIDTH 576 0
DWIDTH 8 0
BBX 6 10 1 0
BITMAP
0C
0C
0C
7C
CC
CC
CC
CC
CC
7C
ENDCHAR
STARTCHAR 0065
ENCODING 101
SWIDTH 576 0
DWIDTH 8 0
BBX 7 7 1 0
BITMAP
7C
CC
C6
FE
C6
CC
7C
ENDCHAR
STARTCHAR 0066
ENCODING 102
SWIDTH 576 0
DWIDTH 8 0
BBX 7 10 1 0
BITMAP
1E
3A
30
FC
FC
30
30
30
FE
FE
ENDCHAR
STARTCHAR 0067
ENCODING 103
SWIDTH 576 0
DWIDTH 8 0
BBX 8 11 0 -3
BITMAP
03
3E
66
66
3E
60
7E
7F
C3
7F
3E
ENDCHAR
STARTCHAR 0068
ENCODING 104
SWIDTH 576 0
DWIDTH 8 0
BBX 6 10 1 0
BITMAP
C0
C0
C0
FC
EC
CC
CC
CC
CC
CC
ENDCHAR
STARTCHAR 0069
ENCODING 105
SWIDTH 576 0
DWIDTH 8 0
BBX 7 10 1 0
BITMAP
10
10
00
F8
F8
18
18
18
FE
FE
ENDCHAR
STARTCHAR 006A
ENCODING 106
SWIDTH 576 0
DWIDTH 8 0
BBX 5 13 1 -3
BITMAP
10
10
00
F8
F8
18
18
18
18
18
38
F0
60
ENDCHAR
STARTCHAR 006B
ENCODING 107
SWIDTH 576 0
DWIDTH 8 0
BBX 7 10 1 0
BITMAP
C0
C0
C0
CE
DC
F8
F8
F8
DC
CE
ENDCHAR
STARTCHAR 006C
ENCODING 108
SWIDTH 576 0
DWIDTH 8 0
BBX 7 10 1 0
BITMAP
F0
F0
30
30
30
30
30
30
FE
FE
ENDCHAR
STARTCHAR 006D
ENCODING 109
SWIDTH 576 0
DWIDTH 8 0
BBX 7 7 1 0
BITMAP
FE
F6
B6
B6
B6
B6
B6
ENDCHAR
STARTCHAR 006E
ENCODING 110
SWIDTH 576 0
DWIDTH 8 0
BBX 6 7 1 0
BITMAP
FC
EC
CC
CC
CC
CC
CC
ENDCHAR
STARTCHAR 006F
ENCODING 111
SWIDTH 576 0
DWIDTH 8 0
BBX 7 7 1 0
BITMAP
7C
CC
CE
CE
CE
CC
78
ENDCHAR
STARTCHAR 0070
ENCODING 112
SWIDTH 576 0
DWIDTH 8 0
BBX 7 10 1 -3
BITMAP
FC
EE
C6
C6
C6
EC
FC
C0
C0
C0
ENDCHAR
STARTCHAR 0071
ENCODING 113
SWIDTH 576 0
DWIDTH 8 0
BBX 6 10 1 -3
BITMAP
7C
CC
CC
CC
CC
CC
7C
0C
0C
0C
ENDCHAR
STARTCHAR 0072
ENCODING 114
SWIDTH 576 0
DWIDTH 8 0
BBX 7 7 1 0
BITMAP
FE
F6
66
60
60
FC
FC
ENDCHAR
STARTCHAR 0073
ENCODING 115
SWIDTH 576 0
DWIDTH 8 0
BBX 7 7 1 0
BITMAP
7C
CC
E0
7C
0E
CC
7C
ENDCHAR
STARTCHAR 0074
ENCODING 116
SWIDTH 576 0
DWIDTH 8 0
BBX 7 9 1 0
BITMAP
30
30
FE
FE
70
70
70
3E
3E
ENDCHAR
STARTCHAR 0075
ENCODING 117
SWIDTH 576 0
DWIDTH 8 0
BBX 7 7 1 0
BITMAP
CC
CC
CC
CC
CC
FC
F6
ENDCHAR
STARTCHAR 0076
ENCODING 118
SWIDTH 576 0
DWIDTH 8 0
BBX 8 7 0 0
BITMAP
E3
66
76
36
3C
3C
1C
ENDCHAR
STARTCHAR 0077
ENCODING 119
SWIDTH 576 0
DWIDTH 8 0
BBX 8 7 0 0
BITMAP
D9
DB
DF
5F
77
76
76
ENDCHAR
STARTCHAR 0078
ENCODING 120
SWIDTH 576 0
DWIDTH 8 0
BBX 8 7 0 0
BITMAP
67
36
3C
1C
3C
76
E7
ENDCHAR
STARTCHAR 0079
ENCODING 121
SWIDTH 576 0
DWIDTH 8 0
BBX 8 10 0 -3
BITMAP
E3
66
76
36
3C
1C
18
18
70
60
ENDCHAR
STARTCHAR 007A
ENCODING 122
SWIDTH 576 0
DWIDTH 8 0
BBX 6 7 1 0
BITMAP
FC
18
38
30
70
60
FC
ENDCHAR
STARTCHAR 007B
ENCODING 123
SWIDTH 576 0
DWIDTH 8 0
BBX 4 12 2 -2
BITMAP
10
60
60
60
60
60
C0
60
60
60
60
30
ENDCHAR
STARTCHAR 007C
ENCODING 124
SWIDTH 576 0
DWIDTH 8 0
BBX 2 13 3 -3
BITMAP
C0
C0
C0
C0
C0
C0
C0
C0
C0
C0
C0
C0
C0
ENDCHAR
STARTCHAR 007D
ENCODING 125
SWIDTH 576 0
DWIDTH 8 0
BBX 4 12 2 -2
BITMAP
C0
60
60
60
60
20
30
60
60
60
60
E0
ENDCHAR
STARTCHAR 007E
ENCODING 126
SWIDTH 576 0
DWIDTH 8 0
BBX 8 3 0 3
BITMAP
01
FB
8E
ENDCHAR
STARTCHAR 00A0
ENCODING 160
SWIDTH 576 0
DWIDTH 8 0
BBX 0 0 0 0
BITMAP
ENDCHAR
STARTCHAR 00A1
ENCODING 161
SWIDTH 576 0
DWIDTH 8 0
BBX 2 9 3 -2
BITMAP
C0
C0
00
C0
C0
C0
C0
C0
C0
ENDCHAR
STARTCHAR 00A2
ENCODING 162
SWIDTH 576 0
DWIDTH 8 0
BBX 7 10 1 0
BITMAP
10
10
7C
CC
C6
C0
C6
EC
78
10
ENDCHAR
STARTCHAR 00A3
ENCODING 163
SWIDTH 576 0
DWIDTH 8 0
BBX 8 10 0 0
BITMAP
1C
3F
73
70
F8
F8
70
60
FE
FE
ENDCHAR
STARTCHAR 00A4
ENCODING 164
SWIDTH 576 0
DWIDTH 8 0
BBX 7 7 1 1
BITMAP
FE
CC
86
86
84
FC
B6
ENDCHAR
STARTCHAR 00A5
ENCODING 165
SWIDTH 576 0
DWIDTH 8 0
BBX 8 10 0 0
BITMAP
E3
67
66
36
FF
3C
FF
18
18
18
ENDCHAR
STARTCHAR 00A6
ENCODING 166
SWIDTH 576 0
DWIDTH 8 0
BBX 2 13 3 -3
BITMAP
C0
C0
C0
C0
C0
00
00
00
C0
C0
C0
C0
C0
ENDCHAR
STARTCHAR 00A7
ENCODING 167
SWIDTH 576 0
DWIDTH 8 0
BBX 7 13 1 -3
BITMAP
30
FC
CC
E0
78
DC
C6
E4
78
0C
CC
FC
30
ENDCHAR
STARTCHAR 00A8
ENCODING 168
SWIDTH 576 0
DWIDTH 8 0
BBX 5 2 2 8
BITMAP
98
98
ENDCHAR
STARTCHAR 00A9
ENCODING 169
SWIDTH 576 0
DWIDTH 8 0
BBX 8 10 0 0
BITMAP
1C
62
59
B5
A5
A3
A5
BD
42
3C
ENDCHAR
STARTCHAR 00AA
ENCODING 170
SWIDTH 576 0
DWIDTH 8 0
BBX 5 5 2 5
BITMAP
60
90
F0
90
F8
ENDCHAR
STARTCHAR 00AB
ENCODING 171
SWIDTH 576 0
DWIDTH 8 0
BBX 6 5 1 2
BITMAP
6C
C8
D8
4C
64
ENDCHAR
STARTCHAR 00AC
ENCODING 172
SWIDTH 576 0
DWIDTH 8 0
BBX 7 5 1 2
BITMAP
FE
FE
06
06
06
ENDCHAR
STARTCHAR 00AD
ENCODING 173
SWIDTH 576 0
DWIDTH 8 0
BBX 4 2 2 3
BITMAP
F0
F0
ENDCHAR
STARTCHAR 00AE
ENCODING 174
SWIDTH 576 0
DWIDTH 8 0
BBX 8 10 0 0
BITMAP
1C
62
79
B7
B5
BD
B5
B7
42
3C
ENDCHAR
STARTCHAR 00AF
ENCODING 175
SWIDTH 576 0
DWIDTH 8 0
BBX 5 1 2 9
BITMAP
F8
ENDCHAR
STARTCHAR 00B0
ENCODING 176
SWIDTH 576 0
DWIDTH 8 0
BBX 4 5 2 5
BITMAP
60
D0
90
F0
20
ENDCHAR
STARTCHAR 00B1
ENCODING 177
SWIDTH 576 0
DWIDTH 8 0
BBX 7 7 1 0
BITMAP
30
30
FE
30
30
FE
FE
ENDCHAR
STARTCHAR 00B2
ENCODING 178
SWIDTH 576 0
DWIDTH 8 0
BBX 4 5 2 6
BITMAP
70
90
30
60
F0
ENDCHAR
STARTCHAR 00B3
ENCODING 179
SWIDTH 576 0
DWIDTH 8 0
BBX 4 5 2 6
BITMAP
70
90
60
10
F0
ENDCHAR
STARTCHAR 00B4
ENCODING 180
SWIDTH 576 0
DWIDTH 8 0
BBX 3 3 3 8
BITMAP
60
C0
80
ENDCHAR
STARTCHAR 00B5
ENCODING 181
SWIDTH 576 0
DWIDTH 8 0
BBX 7 9 1 -2
BITMAP
CC
CC
CC
CC
CC
FC
F6
C0
C0
ENDCHAR
STARTCHAR 00B6
ENCODING 182
SWIDTH 576 0
DWIDTH 8 0
BBX 7 12 0 -2
BITMAP
1E
76
76
F6
76
76
16
16
16
16
16
16
ENDCHAR
STARTCHAR 00B7
ENCODING 183
SWIDTH 576 0
DWIDTH 8 0
BBX 2 2 3 4
BITMAP
C0
C0
ENDCHAR
STARTCHAR 00B8
ENCODING 184
SWIDTH 576 0
DWIDTH 8 0
BBX 3 3 3 -3
BITMAP
40
20
C0
ENDCHAR
STARTCHAR 00B9
ENCODING 185
SWIDTH 576 0
DWIDTH 8 0
BBX 4 5 2 6
BITMAP
E0
20
20
20
F0
ENDCHAR
STARTCHAR 00BA
ENCODING 186
SWIDTH 576 0
DWIDTH 8 0
BBX 4 5 2 5
BITMAP
60
D0
90
D0
60
ENDCHAR
STARTCHAR 00BB
ENCODING 187
SWIDTH 576 0
DWIDTH 8 0
BBX 6 5 1 2
BITMAP
D8
6C
6C
4C
D8
ENDCHAR
STARTCHAR 00BC
ENCODING 188
SWIDTH 576 0
DWIDTH 8 0
BBX 8 10 0 0
BITMAP
01
C3
42
44
48
F6
15
27
4F
C3
ENDCHAR
STARTCHAR 00BD
ENCODING 189
SWIDTH 576 0
DWIDTH 8 0
BBX 8 10 0 0
BITMAP
01
C2
42
44
48
F7
15
23
46
CF
ENDCHAR
STARTCHAR 00BE
ENCODING 190
SWIDTH 576 0
DWIDTH 8 0
BBX 8 10 0 0
BITMAP
F1
13
62
14
F8
06
15
27
4F
C3
ENDCHAR
STARTCHAR 00BF
ENCODING 191
SWIDTH 576 0
DWIDTH 8 0
BBX 7 10 1 -3
BITMAP
30
30
00
30
70
E0
CE
CC
FC
30
ENDCHAR
STARTCHAR 00C0
ENCODING 192
SWIDTH 576 0
DWIDTH 8 0
BBX 8 12 0 0
BITMAP
30
18
1C
3C
3C
3C
36
66
7E
7F
E3
C3
ENDCHAR
STARTCHAR 00C1
ENCODING 193
SWIDTH 576 0
DWIDTH 8 0
BBX 8 12 0 0
BITMAP
0E
18
1C
3C
3C
3C
36
66
7E
7F
E3
C3
ENDCHAR
STARTCHAR 00C2
ENCODING 194
SWIDTH 576 0
DWIDTH 8 0
BBX 8 12 0 0
BITMAP
3C
26
1C
3C
3C
3C
36
66
7E
7F
E3
C3
ENDCHAR
STARTCHAR 00C3
ENCODING 195
SWIDTH 576 0
DWIDTH 8 0
BBX 8 12 0 0
BITMAP
3E
44
1C
3C
3C
3C
36
66
7E
7F
E3
C3
ENDCHAR
STARTCHAR 00C4
ENCODING 196
SWIDTH 576 0
DWIDTH 8 0
BBX 8 12 0 0
BITMAP
26
00
1C
3C
3C
3C
36
66
7E
7F
E3
C3
ENDCHAR
STARTCHAR 00C5
ENCODING 197
SWIDTH 576 0
DWIDTH 8 0
BBX 8 13 0 0
BITMAP
18
14
18
1C
3C
3C
3C
36
66
7E
7F
E3
C3
ENDCHAR
STARTCHAR 00C6
ENCODING 198
SWIDTH 576 0
DWIDTH 8 0
BBX 8 10 0 0
BITMAP
3F
3F
3C
3C
6F
6F
7C
7C
CF
CF
ENDCHAR
STARTCHAR 00C7
ENCODING 199
SWIDTH 576 0
DWIDTH 8 0
BBX 8 13 0 -3
BITMAP
1C
7E
67
E3
E0
E0
E3
E3
7E
3C
08
04
18
ENDCHAR
STARTCHAR 00C8
ENCODING 200
SWIDTH 576 0
DWIDTH 8 0
BBX 7 12 1 0
BITMAP
60
10
FE
FC
C0
C0
FC
FC
C0
C0
FC
FE
ENDCHAR
STARTCHAR 00C9
ENCODING 201
SWIDTH 576 0
DWIDTH 8 0
BBX 7 12 1 0
BITMAP
1C
30
FE
FC
C0
C0
FC
FC
C0
C0
FC
FE
ENDCHAR
STARTCHAR 00CA
ENCODING 202
SWIDTH 576 0
DWIDTH 8 0
BBX 7 12 1 0
BITMAP
38
4C
FE
FC
C0
C0
FC
FC
C0
C0
FC
FE
ENDCHAR
STARTCHAR 00CB
ENCODING 203
SWIDTH 576 0
DWIDTH 8 0
BBX 7 12 1 0
BITMAP
4C
00
FE
FC
C0
C0
FC
FC
C0
C0
FC
FE
ENDCHAR
STARTCHAR 00CC
ENCODING 204
SWIDTH 576 0
DWIDTH 8 0
BBX 6 12 1 0
BITMAP
60
30
FC
FC
30
30
30
30
30
30
FC
FC
ENDCHAR
STARTCHAR 00CD
ENCODING 205
SWIDTH 576 0
DWIDTH 8 0
BBX 6 12 1 0
BITMAP
1C
30
FC
FC
30
30
30
30
30
30
FC
FC
ENDCHAR
STARTCHAR 00CE
ENCODING 206
SWIDTH 576 0
DWIDTH 8 0
BBX 6 12 1 0
BITMAP
78
4C
FC
FC
30
30
30
30
30
30
FC
FC
ENDCHAR
STARTCHAR 00CF
ENCODING 207
SWIDTH 576 0
DWIDTH 8 0
BBX 6 12 1 0
BITMAP
4C
00
FC
FC
30
30
30
30
30
30
FC
FC
ENDCHAR
STARTCHAR 00D0
ENCODING 208
SWIDTH 576 0
DWIDTH 8 0
BBX 8 10 0 0
BITMAP
78
7E
67
63
FB
FB
63
63
7F
7E
ENDCHAR
STARTCHAR 00D1
ENCODING 209
SWIDTH 576 0
DWIDTH 8 0
BBX 7 12 1 0
BITMAP
7C
88
CE
CE
EE
EE
FE
FE
DE
DE
CE
CE
ENDCHAR
STARTCHAR 00D2
ENCODING 210
SWIDTH 576 0
DWIDTH 8 0
BBX 8 12 0 0
BITMAP
30
18
1C
7E
67
E3
E3
E3
E3
E3
7F
3E
ENDCHAR
STARTCHAR 00D3
ENCODING 211
SWIDTH 576 0
DWIDTH 8 0
BBX 8 12 0 0
BITMAP
0E
18
1C
7E
67
E3
E3
E3
E3
E3
7F
3E
ENDCHAR
STARTCHAR 00D4
ENCODING 212
SWIDTH 576 0
DWIDTH 8 0
BBX 8 12 0 0
BITMAP
3C
26
1C
7E
67
E3
E3
E3
E3
E3
7F
3E
ENDCHAR
STARTCHAR 00D5
ENCODING 213
SWIDTH 576 0
DWIDTH 8 0
BBX 8 12 0 0
BITMAP
3E
44
1C
7E
67
E3
E3
E3
E3
E3
7F
3E
ENDCHAR
STARTCHAR 00D6
ENCODING 214
SWIDTH 576 0
DWIDTH 8 0
BBX 8 12 0 0
BITMAP
26
00
1C
7E
67
E3
E3
E3
E3
E3
7F
3E
ENDCHAR
STARTCHAR 00D7
ENCODING 215
SWIDTH 576 0
DWIDTH 8 0
BBX 6 6 1 1
BITMAP
44
CC
78
30
78
CC
ENDCHAR
STARTCHAR 00D8
ENCODING 216
SWIDTH 576 0
DWIDTH 8 0
BBX 8 11 0 -1
BITMAP
1F
7E
67
E7
EB
FB
F3
E3
7F
7E
C0
ENDCHAR
STARTCHAR 00D9
ENCODING 217
SWIDTH 576 0
DWIDTH 8 0
BBX 7 12 1 0
BITMAP
60
30
C6
C6
C6
C6
C6
C6
C6
CE
FC
7C
ENDCHAR
STARTCHAR 00DA
ENCODING 218
SWIDTH 576 0
DWIDTH 8 0
BBX 7 12 1 0
BITMAP
1C
30
C6
C6
C6
C6
C6
C6
C6
CE
FC
7C
ENDCHAR
STARTCHAR 00DB
ENCODING 219
SWIDTH 576 0
DWIDTH 8 0
BBX 7 12 1 0
BITMAP
78
4C
C6
C6
C6
C6
C6
C6
C6
CE
FC
7C
ENDCHAR
STARTCHAR 00DC
ENCODING 220
SWIDTH 576 0
DWIDTH 8 0
BBX 7 12 1 0
BITMAP
4C
00
C6
C6
C6
C6
C6
C6
C6
CE
FC
7C
ENDCHAR
STARTCHAR 00DD
ENCODING 221
SWIDTH 576 0
DWIDTH 8 0
BBX 8 12 0 0
BITMAP
0E
18
E3
67
66
36
3C
3C
18
18
18
18
ENDCHAR
STARTCHAR 00DE
ENCODING 222
SWIDTH 576 0
DWIDTH 8 0
BBX 7 10 1 0
BITMAP
C0
C0
FC
FE
C6
C6
FE
FC
C0
C0
ENDCHAR
STARTCHAR 00DF
ENCODING 223
SWIDTH 576 0
DWIDTH 8 0
BBX 8 11 0 -1
BITMAP
3E
7F
63
E6
EC
67
63
63
6F
6E
60
ENDCHAR
STARTCHAR 00E0
ENCODING 224
SWIDTH 576 0
DWIDTH 8 0
BBX 7 11 1 0
BITMAP
60
20
30
00
7C
CC
0C
FC
CC
CC
FE
ENDCHAR
STARTCHAR 00E1
ENCODING 225
SWIDTH 576 0
DWIDTH 8 0
BBX 7 11 1 0
BITMAP
18
10
30
00
7C
CC
0C
FC
CC
CC
FE
ENDCHAR
STARTCHAR 00E2
ENCODING 226
SWIDTH 576 0
DWIDTH 8 0
BBX 7 11 1 0
BITMAP
30
78
CC
00
7C
CC
0C
FC
CC
CC
FE
ENDCHAR
STARTCHAR 00E3
ENCODING 227
SWIDTH 576 0
DWIDTH 8 0
BBX 7 10 1 0
BITMAP
7C
98
00
7C
CC
0C
FC
CC
CC
FE
ENDCHAR
STARTCHAR 00E4
ENCODING 228
SWIDTH 576 0
DWIDTH 8 0
BBX 7 10 1 0
BITMAP
4C
4C
00
7C
CC
0C
FC
CC
CC
FE
ENDCHAR
STARTCHAR 00E5
ENCODING 229
SWIDTH 576 0
DWIDTH 8 0
BBX 7 11 1 0
BITMAP
30
48
30
00
7C
CC
0C
FC
CC
CC
FE
ENDCHAR
STARTCHAR 00E6
ENCODING 230
SWIDTH 576 0
DWIDTH 8 0
BBX 8 7 0 0
BITMAP
7F
D9
19
7F
D9
D9
7F
ENDCHAR
STARTCHAR 00E7
ENCODING 231
SWIDTH 576 0
DWIDTH 8 0
BBX 6 10 1 -3
BITMAP
78
CC
CC
C0
C4
CC
78
10
08
30
ENDCHAR
STARTCHAR 00E8
ENCODING 232
SWIDTH 576 0
DWIDTH 8 0
BBX 7 11 1 0
BITMAP
60
30
10
00
7C
CC
C6
FE
C6
CC
7C
ENDCHAR
STARTCHAR 00E9
ENCODING 233
SWIDTH 576 0
DWIDTH 8 0
BBX 7 11 1 0
BITMAP
18
18
30
00
7C
CC
C6
FE
C6
CC
7C
ENDCHAR
STARTCHAR 00EA
ENCODING 234
SWIDTH 576 0
DWIDTH 8 0
BBX 7 11 1 0
BITMAP
30
38
4C
00
7C
CC
C6
FE
C6
CC
7C
ENDCHAR
STARTCHAR 00EB
ENCODING 235
SWIDTH 576 0
DWIDTH 8 0
BBX 7 10 1 0
BITMAP
4C
4C
00
7C
CC
C6
FE
C6
CC
7C
ENDCHAR
STARTCHAR 00EC
ENCODING 236
SWIDTH 576 0
DWIDTH 8 0
BBX 7 11 1 0
BITMAP
60
30
18
00
F8
F8
18
18
18
FE
FE
ENDCHAR
STARTCHAR 00ED
ENCODING 237
SWIDTH 576 0
DWIDTH 8 0
BBX 7 11 1 0
BITMAP
0C
18
30
00
F8
F8
18
18
18
FE
FE
ENDCHAR
STARTCHAR 00EE
ENCODING 238
SWIDTH 576 0
DWIDTH 8 0
BBX 7 11 1 0
BITMAP
10
28
6C
00
F8
F8
18
18
18
FE
FE
ENDCHAR
STARTCHAR 00EF
ENCODING 239
SWIDTH 576 0
DWIDTH 8 0
BBX 7 10 1 0
BITMAP
6C
6C
00
F8
F8
18
18
18
FE
FE
ENDCHAR
STARTCHAR 00F0
ENCODING 240
SWIDTH 576 0
DWIDTH 8 0
BBX 7 10 1 0
BITMAP
F8
F0
18
7C
CC
CE
CE
CE
CC
78
ENDCHAR
STARTCHAR 00F1
ENCODING 241
SWIDTH 576 0
DWIDTH 8 0
BBX 6 10 1 0
BITMAP
7C
98
00
FC
EC
CC
CC
CC
CC
CC
ENDCHAR
STARTCHAR 00F2
ENCODING 242
SWIDTH 576 0
DWIDTH 8 0
BBX 7 11 1 0
BITMAP
60
30
30
00
7C
CC
CE
CE
CE
CC
78
ENDCHAR
STARTCHAR 00F3
ENCODING 243
SWIDTH 576 0
DWIDTH 8 0
BBX 7 11 1 0
BITMAP
18
10
30
00
7C
CC
CE
CE
CE
CC
78
ENDCHAR
STARTCHAR 00F4
ENCODING 244
SWIDTH 576 0
DWIDTH 8 0
BBX 7 11 1 0
BITMAP
30
38
CC
00
7C
CC
CE
CE
CE
CC
78
ENDCHAR
STARTCHAR 00F5
ENCODING 245
SWIDTH 576 0
DWIDTH 8 0
BBX 7 10 1 0
BITMAP
7C
98
00
7C
CC
CE
CE
CE
CC
78
ENDCHAR
STARTCHAR 00F6
ENCODING 246
SWIDTH 576 0
DWIDTH 8 0
BBX 7 10 1 0
BITMAP
4C
4C
00
7C
CC
CE
CE
CE
CC
78
ENDCHAR
STARTCHAR 00F7
ENCODING 247
SWIDTH 576 0
DWIDTH 8 0
BBX 7 7 1 0
BITMAP
30
30
00
FE
00
30
30
ENDCHAR
STARTCHAR 00F8
ENCODING 248
SWIDTH 576 0
DWIDTH 8 0
BBX 7 9 1 -1
BITMAP
04
7C
CC
DE
DE
EE
CC
78
80
ENDCHAR
STARTCHAR 00F9
ENCODING 249
SWIDTH 576 0
DWIDTH 8 0
BBX 7 11 1 0
BITMAP
60
20
30
00
CC
CC
CC
CC
CC
FC
F6
ENDCHAR
STARTCHAR 00FA
ENCODING 250
SWIDTH 576 0
DWIDTH 8 0
BBX 7 11 1 0
BITMAP
18
10
30
00
CC
CC
CC
CC
CC
FC
F6
ENDCHAR
STARTCHAR 00FB
ENCODING 251
SWIDTH 576 0
DWIDTH 8 0
BBX 7 11 1 0
BITMAP
30
78
CC
00
CC
CC
CC
CC
CC
FC
F6
ENDCHAR
STARTCHAR 00FC
ENCODING 252
SWIDTH 576 0
DWIDTH 8 0
BBX 7 10 1 0
BITMAP
4C
4C
00
CC
CC
CC
CC
CC
FC
F6
ENDCHAR
STARTCHAR 00FD
ENCODING 253
SWIDTH 576 0
DWIDTH 8 0
BBX 8 14 0 -3
BITMAP
0C
0C
18
80
63
66
76
36
3C
1C
18
18
70
60
ENDCHAR
STARTCHAR 00FE
ENCODING 254
SWIDTH 576 0
DWIDTH 8 0
BBX 7 13 1 -3
BITMAP
C0
C0
C0
FC
EC
C6
C6
C6
EC
FC
C0
C0
C0
ENDCHAR
STARTCHAR 00FF
ENCODING 255
SWIDTH 576 0
DWIDTH 8 0
BBX 8 13 0 -3
BITMAP
36
36
80
63
66
76
36
3C
1C
18
18
70
60
ENDCHAR
STARTCHAR 0100
ENCODING 256
SWIDTH 576 0
DWIDTH 8 0
BBX 8 12 0 0
BITMAP
3C
00
1C
3C
3C
3C
36
66
7E
7F
E3
C3
ENDCHAR
STARTCHAR 0101
ENCODING 257
SWIDTH 576 0
DWIDTH 8 0
BBX 7 10 1 0
BITMAP
78
00
00
7C
CC
0C
FC
CC
CC
FE
ENDCHAR
STARTCHAR 0102
ENCODING 258
SWIDTH 576 0
DWIDTH 8 0
BBX 8 12 0 0
BITMAP
3E
18
1C
3C
3C
3C
36
66
7E
7F
E3
C3
ENDCHAR
STARTCHAR 0103
ENCODING 259
SWIDTH 576 0
DWIDTH 8 0
BBX 7 10 1 0
BITMAP
CC
30
00
7C
CC
0C
FC
CC
CC
FE
ENDCHAR
STARTCHAR 0104
ENCODING 260
SWIDTH 576 0
DWIDTH 8 0
BBX 9 12 0 -2
BITMAP
1C00
3C00
3C00
3C00
3600
6600
7E00
7F00
E300
C300
0200
0380
ENDCHAR
STARTCHAR 0105
ENCODING 261
SWIDTH 576 0
DWIDTH 8 0
BBX 8 9 1 -2
BITMAP
7C
CC
0C
FC
CC
CC
FE
04
07
ENDCHAR
STARTCHAR 0106
ENCODING 262
SWIDTH 576 0
DWIDTH 8 0
BBX 8 12 0 0
BITMAP
0E
18
1C
7E
67
E3
E0
E0
E3
E3
7E
3C
ENDCHAR
STARTCHAR 0107
ENCODING 263
SWIDTH 576 0
DWIDTH 8 0
BBX 6 11 1 0
BITMAP
18
10
30
00
78
CC
CC
C0
C4
CC
78
ENDCHAR
STARTCHAR 0108
ENCODING 264
SWIDTH 576 0
DWIDTH 8 0
BBX 8 12 0 0
BITMAP
3C
26
1C
7E
67
E3
E0
E0
E3
E3
7E
3C
ENDCHAR
STARTCHAR 0109
ENCODING 265
SWIDTH 576 0
DWIDTH 8 0
BBX 6 11 1 0
BITMAP
30
78
CC
00
78
CC
CC
C0
C4
CC
78
ENDCHAR
STARTCHAR 010A
ENCODING 266
SWIDTH 576 0
DWIDTH 8 0
BBX 8 12 0 0
BITMAP
18
18
1C
7E
67
E3
E0
E0
E3
E3
7E
3C
ENDCHAR
STARTCHAR 010B
ENCODING 267
SWIDTH 576 0
DWIDTH 8 0
BBX 6 10 1 0
BITMAP
30
30
00
78
CC
CC
C0
C4
CC
78
ENDCHAR
STARTCHAR 010C
ENCODING 268
SWIDTH 576 0
DWIDTH 8 0
BBX 8 12 0 0
BITMAP
3E
18
1C
7E
67
E3
E0
E0
E3
E3
7E
3C
ENDCHAR
STARTCHAR 010D
ENCODING 269
SWIDTH 576 0
DWIDTH 8 0
BBX 6 11 1 0
BITMAP
CC
78
30
00
78
CC
CC
C0
C4
CC
78
ENDCHAR
STARTCHAR 010E
ENCODING 270
SWIDTH 576 0
DWIDTH 8 0
BBX 7 12 1 0
BITMAP
7C
30
F0
FC
CE
C6
C6
C6
C6
C6
FE
FC
ENDCHAR
STARTCHAR 010F
ENCODING 271
SWIDTH 576 0
DWIDTH 8 0
BBX 9 10 1 0
BITMAP
0D80
0D80
0C80
7C80
CD00
CC00
CC00
CC00
CC00
7C00
ENDCHAR
STARTCHAR 0110
ENCODING 272
SWIDTH 576 0
DWIDTH 8 0
BBX 8 10 0 0
BITMAP
78
7E
67
63
FB
FB
63
63
7F
7E
ENDCHAR
STARTCHAR 0111
ENCODING 273
SWIDTH 576 0
DWIDTH 8 0
BBX 7 10 1 0
BITMAP
0C
3E
0C
7C
CC
CC
CC
CC
CC
7C
ENDCHAR
STARTCHAR 0112
ENCODING 274
SWIDTH 576 0
DWIDTH 8 0
BBX 7 12 1 0
BITMAP
7C
00
FE
FC
C0
C0
FC
FC
C0
C0
FC
FE
ENDCHAR
STARTCHAR 0113
ENCODING 275
SWIDTH 576 0
DWIDTH 8 0
BBX 7 10 1 0
BITMAP
7C
00
00
7C
CC
C6
FE
C6
CC
7C
ENDCHAR
STARTCHAR 0114
ENCODING 276
SWIDTH 576 0
DWIDTH 8 0
BBX 7 12 1 0
BITMAP
7C
30
FE
FC
C0
C0
FC
FC
C0
C0
FC
FE
ENDCHAR
STARTCHAR 0115
ENCODING 277
SWIDTH 576 0
DWIDTH 8 0
BBX 7 10 1 0
BITMAP
4C
38
00
7C
CC
C6
FE
C6
CC
7C
ENDCHAR
STARTCHAR 0116
ENCODING 278
SWIDTH 576 0
DWIDTH 8 0
BBX 7 12 1 0
BITMAP
30
30
FE
FC
C0
C0
FC
FC
C0
C0
FC
FE
ENDCHAR
STARTCHAR 0117
ENCODING 279
SWIDTH 576 0
DWIDTH 8 0
BBX 7 10 1 0
BITMAP
30
30
00
7C
CC
C6
FE
C6
CC
7C
ENDCHAR
STARTCHAR 0118
ENCODING 280
SWIDTH 576 0
DWIDTH 8 0
BBX 7 12 1 -2
BITMAP
FE
FC
C0
C0
FC
FC
C0
C0
FC
FE
08
0E
ENDCHAR
STARTCHAR 0119
ENCODING 281
SWIDTH 576 0
DWIDTH 8 0
BBX 7 9 1 -2
BITMAP
7C
CC
C6
FE
C6
CC
7C
30
3C
ENDCHAR
STARTCHAR 011A
ENCODING 282
SWIDTH 576 0
DWIDTH 8 0
BBX 7 12 1 0
BITMAP
6C
30
FE
FC
C0
C0
FC
FC
C0
C0
FC
FE
ENDCHAR
STARTCHAR 011B
ENCODING 283
SWIDTH 576 0
DWIDTH 8 0
BBX 7 11 1 0
BITMAP
4C
68
30
00
7C
CC
C6
FE
C6
CC
7C
ENDCHAR
STARTCHAR 011C
ENCODING 284
SWIDTH 576 0
DWIDTH 8 0
BBX 8 12 0 0
BITMAP
3C
26
1C
7E
67
E3
E0
EF
E3
E3
7F
3D
ENDCHAR
STARTCHAR 011D
ENCODING 285
SWIDTH 576 0
DWIDTH 8 0
BBX 9 13 0 -3
BITMAP
3C00
2600
0180
3F00
6600
6600
3E00
6000
7E00
7F00
C300
7F00
3E00
ENDCHAR
STARTCHAR 011E
ENCODING 286
SWIDTH 576 0
DWIDTH 8 0
BBX 8 12 0 0
BITMAP
3E
18
1C
7E
67
E3
E0
EF
E3
E3
7F
3D
ENDCHAR
STARTCHAR 011F
ENCODING 287
SWIDTH 576 0
DWIDTH 8 0
BBX 8 13 0 -3
BITMAP
26
1C
03
3E
66
66
3E
60
7E
7F
C3
7F
3E
ENDCHAR
STARTCHAR 0120
ENCODING 288
SWIDTH 576 0
DWIDTH 8 0
BBX 8 12 0 0
BITMAP
18
18
1C
7E
67
E3
E0
EF
E3
E3
7F
3D
ENDCHAR
STARTCHAR 0121
ENCODING 289
SWIDTH 576 0
DWIDTH 8 0
BBX 8 13 0 -3
BITMAP
18
18
03
3E
66
66
3E
60
7E
7F
C3
7F
3E
ENDCHAR
STARTCHAR 0122
ENCODING 290
SWIDTH 576 0
DWIDTH 8 0
BBX 8 15 0 -5
BITMAP
1C
7E
67
E3
E0
EF
E3
E3
7F
3D
00
18
18
08
18
ENDCHAR
STARTCHAR 0123
ENCODING 291
SWIDTH 576 0
DWIDTH 8 0
BBX 8 16 0 -3
BITMAP
08
18
10
18
18
03
3E
66
66
3E
60
7E
7F
C3
7F
3E
ENDCHAR
STARTCHAR 0124
ENCODING 292
SWIDTH 576 0
DWIDTH 8 0
BBX 7 12 1 0
BITMAP
78
4C
CE
CE
CE
CE
FE
FE
CE
CE
CE
CE
ENDCHAR
STARTCHAR 0125
ENCODING 293
SWIDTH 576 0
DWIDTH 8 0
BBX 8 12 -1 0
BITMAP
78
CC
30
30
30
3F
3B
33
33
33
33
33
ENDCHAR
STARTCHAR 0126
ENCODING 294
SWIDTH 576 0
DWIDTH 8 0
BBX 8 10 0 0
BITMAP
67
67
FF
67
7F
7F
67
67
67
67
ENDCHAR
STARTCHAR 0127
ENCODING 295
SWIDTH 576 0
DWIDTH 8 0
BBX 7 10 0 0
BITMAP
60
F8
60
7E
76
66
66
66
66
66
ENDCHAR
STARTCHAR 0128
ENCODING 296
SWIDTH 576 0
DWIDTH 8 0
BBX 6 12 1 0
BITMAP
7C
88
FC
FC
30
30
30
30
30
30
FC
FC
ENDCHAR
STARTCHAR 0129
ENCODING 297
SWIDTH 576 0
DWIDTH 8 0
BBX 7 10 1 0
BITMAP
7C
4C
00
F8
F8
18
18
18
FE
FE
ENDCHAR
STARTCHAR 012A
ENCODING 298
SWIDTH 576 0
DWIDTH 8 0
BBX 6 12 1 0
BITMAP
78
00
FC
FC
30
30
30
30
30
30
FC
FC
ENDCHAR
STARTCHAR 012B
ENCODING 299
SWIDTH 576 0
DWIDTH 8 0
BBX 7 10 1 0
BITMAP
7C
00
00
F8
F8
18
18
18
FE
FE
ENDCHAR
STARTCHAR 012C
ENCODING 300
SWIDTH 576 0
DWIDTH 8 0
BBX 6 12 1 0
BITMAP
7C
30
FC
FC
30
30
30
30
30
30
FC
FC
ENDCHAR
STARTCHAR 012D
ENCODING 301
SWIDTH 576 0
DWIDTH 8 0
BBX 7 10 1 0
BITMAP
6C
38
00
F8
F8
18
18
18
FE
FE
ENDCHAR
STARTCHAR 012E
ENCODING 302
SWIDTH 576 0
DWIDTH 8 0
BBX 6 12 1 -2
BITMAP
FC
FC
30
30
30
30
30
30
FC
FC
18
1C
ENDCHAR
STARTCHAR 012F
ENCODING 303
SWIDTH 576 0
DWIDTH 8 0
BBX 7 12 1 -2
BITMAP
10
10
00
F8
F8
18
18
18
FE
FE
10
3C
ENDCHAR
STARTCHAR 0130
ENCODING 304
SWIDTH 576 0
DWIDTH 8 0
BBX 6 12 1 0
BITMAP
30
30
FC
FC
30
30
30
30
30
30
FC
FC
ENDCHAR
STARTCHAR 0131
ENCODING 305
SWIDTH 576 0
DWIDTH 8 0
BBX 7 7 1 0
BITMAP
F8
F8
18
18
18
FE
FE
ENDCHAR
STARTCHAR 0132
ENCODING 306
SWIDTH 576 0
DWIDTH 8 0
BBX 7 10 1 0
BITMAP
CE
CE
CE
CE
CE
CE
0E
CE
FC
7C
ENDCHAR
STARTCHAR 0133
ENCODING 307
SWIDTH 576 0
DWIDTH 8 0
BBX 6 13 1 -3
BITMAP
CC
CC
00
DC
CC
CC
CC
CC
CC
CC
0C
3C
18
ENDCHAR
STARTCHAR 0134
ENCODING 308
SWIDTH 576 0
DWIDTH 8 0
BBX 8 12 1 0
BITMAP
1E
13
0C
0C
0C
0C
0C
0C
0C
CC
FC
78
ENDCHAR
STARTCHAR 0135
ENCODING 309
SWIDTH 576 0
DWIDTH 8 0
BBX 6 14 1 -3
BITMAP
10
38
6C
00
F8
F8
18
18
18
18
18
38
F0
60
ENDCHAR
STARTCHAR 0136
ENCODING 310
SWIDTH 576 0
DWIDTH 8 0
BBX 7 15 1 -5
BITMAP
C6
CE
CC
D8
F8
F8
F8
DC
CC
CE
00
30
30
10
30
ENDCHAR
STARTCHAR 0137
ENCODING 311
SWIDTH 576 0
DWIDTH 8 0
BBX 7 15 1 -5
BITMAP
C0
C0
C0
CE
DC
F8
F8
F8
DC
CE
00
30
30
10
30
ENDCHAR
STARTCHAR 0138
ENCODING 312
SWIDTH 576 0
DWIDTH 8 0
BBX 7 7 1 0
BITMAP
CE
DC
F8
F8
F8
DC
CE
ENDCHAR
STARTCHAR 0139
ENCODING 313
SWIDTH 576 0
DWIDTH 8 0
BBX 7 12 1 0
BITMAP
70
40
C0
C0
C0
C0
C0
C0
C0
C0
FC
FE
ENDCHAR
STARTCHAR 013A
ENCODING 314
SWIDTH 576 0
DWIDTH 8 0
BBX 7 12 1 0
BITMAP
1C
30
F0
F0
30
30
30
30
30
30
FE
FE
ENDCHAR
STARTCHAR 013B
ENCODING 315
SWIDTH 576 0
DWIDTH 8 0
BBX 7 15 1 -5
BITMAP
C0
C0
C0
C0
C0
C0
C0
C0
FC
FE
00
10
10
10
10
ENDCHAR
STARTCHAR 013C
ENCODING 316
SWIDTH 576 0
DWIDTH 8 0
BBX 7 15 1 -5
BITMAP
F0
F0
30
30
30
30
30
30
FE
FE
00
30
30
10
30
ENDCHAR
STARTCHAR 013D
ENCODING 317
SWIDTH 576 0
DWIDTH 8 0
BBX 7 10 1 0
BITMAP
CC
CC
C4
C4
C8
C0
C0
C0
FC
FE
ENDCHAR
STARTCHAR 013E
ENCODING 318
SWIDTH 576 0
DWIDTH 8 0
BBX 7 10 1 0
BITMAP
F6
F6
32
32
34
30
30
30
FE
FE
ENDCHAR
STARTCHAR 013F
ENCODING 319
SWIDTH 576 0
DWIDTH 8 0
BBX 7 10 1 0
BITMAP
C0
C0
C0
CC
CC
CC
C0
C0
FC
FE
ENDCHAR
STARTCHAR 0140
ENCODING 320
SWIDTH 576 0
DWIDTH 8 0
BBX 9 10 1 0
BITMAP
F000
F000
3000
3000
3380
3380
3000
3000
FE00
FE00
ENDCHAR
STARTCHAR 0141
ENCODING 321
SWIDTH 576 0
DWIDTH 8 0
BBX 8 10 0 0
BITMAP
60
60
60
60
68
70
E0
60
7E
7F
ENDCHAR
STARTCHAR 0142
ENCODING 322
SWIDTH 576 0
DWIDTH 8 0
BBX 7 10 1 0
BITMAP
F0
F0
30
34
38
70
B0
30
FE
FE
ENDCHAR
STARTCHAR 0143
ENCODING 323
SWIDTH 576 0
DWIDTH 8 0
BBX 7 12 1 0
BITMAP
1C
30
CE
CE
EE
EE
FE
FE
DE
DE
CE
CE
ENDCHAR
STARTCHAR 0144
ENCODING 324
SWIDTH 576 0
DWIDTH 8 0
BBX 6 11 1 0
BITMAP
18
18
30
00
FC
EC
CC
CC
CC
CC
CC
ENDCHAR
STARTCHAR 0145
ENCODING 325
SWIDTH 576 0
DWIDTH 8 0
BBX 7 15 1 -5
BITMAP
CE
CE
EE
EE
FE
FE
DE
DE
CE
CE
00
30
30
10
30
ENDCHAR
STARTCHAR 0146
ENCODING 326
SWIDTH 576 0
DWIDTH 8 0
BBX 6 12 1 -5
BITMAP
FC
EC
CC
CC
CC
CC
CC
00
30
30
10
30
ENDCHAR
STARTCHAR 0147
ENCODING 327
SWIDTH 576 0
DWIDTH 8 0
BBX 7 12 1 0
BITMAP
7C
30
CE
CE
EE
EE
FE
FE
DE
DE
CE
CE
ENDCHAR
STARTCHAR 0148
ENCODING 328
SWIDTH 576 0
DWIDTH 8 0
BBX 6 11 1 0
BITMAP
CC
68
30
00
FC
EC
CC
CC
CC
CC
CC
ENDCHAR
STARTCHAR 0149
ENCODING 329
SWIDTH 576 0
DWIDTH 8 0
BBX 7 11 0 0
BITMAP
C0
40
40
80
7E
76
66
66
66
66
66
ENDCHAR
STARTCHAR 014A
ENCODING 330
SWIDTH 576 0
DWIDTH 8 0
BBX 7 13 1 -3
BITMAP
CE
CE
EE
EE
FE
FE
DE
DE
CE
CE
0E
1C
18
ENDCHAR
STARTCHAR 014B
ENCODING 331
SWIDTH 576 0
DWIDTH 8 0
BBX 6 10 1 -3
BITMAP
FC
EC
CC
CC
CC
CC
CC
0C
1C
18
ENDCHAR
STARTCHAR 014C
ENCODING 332
SWIDTH 576 0
DWIDTH 8 0
BBX 8 12 0 0
BITMAP
3C
00
1C
7E
67
E3
E3
E3
E3
E3
7F
3E
ENDCHAR
STARTCHAR 014D
ENCODING 333
SWIDTH 576 0
DWIDTH 8 0
BBX 7 10 1 0
BITMAP
7C
00
00
7C
CC
CE
CE
CE
CC
78
ENDCHAR
STARTCHAR 014E
ENCODING 334
SWIDTH 576 0
DWIDTH 8 0
BBX 8 12 0 0
BITMAP
3E
18
1C
7E
67
E3
E3
E3
E3
E3
7F
3E
ENDCHAR
STARTCHAR 014F
ENCODING 335
SWIDTH 576 0
DWIDTH 8 0
BBX 7 10 1 0
BITMAP
4C
38
00
7C
CC
CE
CE
CE
CC
78
ENDCHAR
STARTCHAR 0150
ENCODING 336
SWIDTH 576 0
DWIDTH 8 0
BBX 8 12 0 0
BITMAP
1F
24
1C
7E
67
E3
E3
E3
E3
E3
7F
3E
ENDCHAR
STARTCHAR 0151
ENCODING 337
SWIDTH 576 0
DWIDTH 8 0
BBX 7 10 1 0
BITMAP
3E
68
00
7C
CC
CE
CE
CE
CC
78
ENDCHAR
STARTCHAR 0152
ENCODING 338
SWIDTH 576 0
DWIDTH 8 0
BBX 8 10 0 0
BITMAP
1F
7F
EC
CC
CF
CF
CC
CC
7F
3F
ENDCHAR
STARTCHAR 0153
ENCODING 339
SWIDTH 576 0
DWIDTH 8 0
BBX 8 7 0 0
BITMAP
7F
D9
D9
DF
D9
D9
7F
ENDCHAR
STARTCHAR 0154
ENCODING 340
SWIDTH 576 0
DWIDTH 8 0
BBX 8 12 1 0
BITMAP
1C
30
F8
FE
CE
C6
CE
FC
CE
C6
C6
C7
ENDCHAR
STARTCHAR 0155
ENCODING 341
SWIDTH 576 0
DWIDTH 8 0
BBX 7 11 1 0
BITMAP
18
18
30
00
FE
F6
66
60
60
FC
FC
ENDCHAR
STARTCHAR 0156
ENCODING 342
SWIDTH 576 0
DWIDTH 8 0
BBX 8 15 1 -5
BITMAP
F8
FE
CE
C6
CE
FC
CE
C6
C6
C7
00
30
30
10
30
ENDCHAR
STARTCHAR 0157
ENCODING 343
SWIDTH 576 0
DWIDTH 8 0
BBX 7 12 1 -5
BITMAP
FE
F6
66
60
60
FC
FC
00
30
30
10
20
ENDCHAR
STARTCHAR 0158
ENCODING 344
SWIDTH 576 0
DWIDTH 8 0
BBX 8 12 1 0
BITMAP
7C
30
F8
FE
CE
C6
CE
FC
CE
C6
C6
C7
ENDCHAR
STARTCHAR 0159
ENCODING 345
SWIDTH 576 0
DWIDTH 8 0
BBX 7 11 1 0
BITMAP
4C
68
38
00
FE
F6
66
60
60
FC
FC
ENDCHAR
STARTCHAR 015A
ENCODING 346
SWIDTH 576 0
DWIDTH 8 0
BBX 8 12 0 0
BITMAP
0E
18
1C
7E
63
E0
7C
3F
07
C3
7F
3E
ENDCHAR
STARTCHAR 015B
ENCODING 347
SWIDTH 576 0
DWIDTH 8 0
BBX 7 11 1 0
BITMAP
18
10
30
00
7C
CC
E0
7C
0E
CC
7C
ENDCHAR
STARTCHAR 015C
ENCODING 348
SWIDTH 576 0
DWIDTH 8 0
BBX 8 12 0 0
BITMAP
3C
26
1C
7E
63
E0
7C
3F
07
C3
7F
3E
ENDCHAR
STARTCHAR 015D
ENCODING 349
SWIDTH 576 0
DWIDTH 8 0
BBX 7 11 1 0
BITMAP
30
38
CC
00
7C
CC
E0
7C
0E
CC
7C
ENDCHAR
STARTCHAR 015E
ENCODING 350
SWIDTH 576 0
DWIDTH 8 0
BBX 8 13 0 -3
BITMAP
1C
7E
63
E0
7C
3F
07
C3
7F
3E
08
04
18
ENDCHAR
STARTCHAR 015F
ENCODING 351
SWIDTH 576 0
DWIDTH 8 0
BBX 7 10 1 -3
BITMAP
7C
CC
E0
7C
0E
CC
7C
10
08
30
ENDCHAR
STARTCHAR 0160
ENCODING 352
SWIDTH 576 0
DWIDTH 8 0
BBX 8 12 0 0
BITMAP
3E
18
1C
7E
63
E0
7C
3F
07
C3
7F
3E
ENDCHAR
STARTCHAR 0161
ENCODING 353
SWIDTH 576 0
DWIDTH 8 0
BBX 7 11 1 0
BITMAP
CC
78
30
00
7C
CC
E0
7C
0E
CC
7C
ENDCHAR
STARTCHAR 0162
ENCODING 354
SWIDTH 576 0
DWIDTH 8 0
BBX 8 13 0 -3
BITMAP
FF
FF
18
18
18
18
18
18
18
18
08
04
18
ENDCHAR
STARTCHAR 0163
ENCODING 355
SWIDTH 576 0
DWIDTH 8 0
BBX 7 12 1 -3
BITMAP
30
30
FE
FE
70
70
70
3E
3E
08
0C
38
ENDCHAR
STARTCHAR 0164
ENCODING 356
SWIDTH 576 0
DWIDTH 8 0
BBX 8 12 0 0
BITMAP
3E
18
FF
FF
18
18
18
18
18
18
18
18
ENDCHAR
STARTCHAR 0165
ENCODING 357
SWIDTH 576 0
DWIDTH 8 0
BBX 7 11 1 0
BITMAP
04
04
34
30
FE
FE
70
70
70
3E
3E
ENDCHAR
STARTCHAR 0166
ENCODING 358
SWIDTH 576 0
DWIDTH 8 0
BBX 8 10 0 0
BITMAP
FF
FF
18
18
18
7E
18
18
18
18
ENDCHAR
STARTCHAR 0167
ENCODING 359
SWIDTH 576 0
DWIDTH 8 0
BBX 7 9 1 0
BITMAP
30
30
FE
FE
70
FC
70
3E
3E
ENDCHAR
STARTCHAR 0168
ENCODING 360
SWIDTH 576 0
DWIDTH 8 0
BBX 7 12 1 0
BITMAP
7C
88
C6
C6
C6
C6
C6
C6
C6
CE
FC
7C
ENDCHAR
STARTCHAR 0169
ENCODING 361
SWIDTH 576 0
DWIDTH 8 0
BBX 7 10 1 0
BITMAP
7C
98
00
CC
CC
CC
CC
CC
FC
F6
ENDCHAR
STARTCHAR 016A
ENCODING 362
SWIDTH 576 0
DWIDTH 8 0
BBX 7 12 1 0
BITMAP
78
00
C6
C6
C6
C6
C6
C6
C6
CE
FC
7C
ENDCHAR
STARTCHAR 016B
ENCODING 363
SWIDTH 576 0
DWIDTH 8 0
BBX 7 10 1 0
BITMAP
78
00
00
CC
CC
CC
CC
CC
FC
F6
ENDCHAR
STARTCHAR 016C
ENCODING 364
SWIDTH 576 0
DWIDTH 8 0
BBX 7 12 1 0
BITMAP
7C
30
C6
C6
C6
C6
C6
C6
C6
CE
FC
7C
ENDCHAR
STARTCHAR 016D
ENCODING 365
SWIDTH 576 0
DWIDTH 8 0
BBX 7 10 1 0
BITMAP
4C
30
00
CC
CC
CC
CC
CC
FC
F6
ENDCHAR
STARTCHAR 016E
ENCODING 366
SWIDTH 576 0
DWIDTH 8 0
BBX 7 13 1 0
BITMAP
30
28
30
C6
C6
C6
C6
C6
C6
C6
CE
FC
7C
ENDCHAR
STARTCHAR 016F
ENCODING 367
SWIDTH 576 0
DWIDTH 8 0
BBX 7 11 1 0
BITMAP
30
28
30
00
CC
CC
CC
CC
CC
FC
F6
ENDCHAR
STARTCHAR 0170
ENCODING 368
SWIDTH 576 0
DWIDTH 8 0
BBX 7 12 1 0
BITMAP
3E
48
C6
C6
C6
C6
C6
C6
C6
CE
FC
7C
ENDCHAR
STARTCHAR 0171
ENCODING 369
SWIDTH 576 0
DWIDTH 8 0
BBX 7 10 1 0
BITMAP
3E
48
00
CC
CC
CC
CC
CC
FC
F6
ENDCHAR
STARTCHAR 0172
ENCODING 370
SWIDTH 576 0
DWIDTH 8 0
BBX 7 12 1 -2
BITMAP
C6
C6
C6
C6
C6
C6
C6
CE
FC
7C
10
3C
ENDCHAR
STARTCHAR 0173
ENCODING 371
SWIDTH 576 0
DWIDTH 8 0
BBX 8 9 1 -2
BITMAP
CC
CC
CC
CC
CC
FC
F6
04
07
ENDCHAR
STARTCHAR 0174
ENCODING 372
SWIDTH 576 0
DWIDTH 8 0
BBX 8 12 0 0
BITMAP
3C
26
C9
DB
DB
DB
DF
7F
7F
77
76
66
ENDCHAR
STARTCHAR 0175
ENCODING 373
SWIDTH 576 0
DWIDTH 8 0
BBX 8 11 0 0
BITMAP
18
1C
66
00
D9
DB
DF
5F
77
76
76
ENDCHAR
STARTCHAR 0176
ENCODING 374
SWIDTH 576 0
DWIDTH 8 0
BBX 8 12 0 0
BITMAP
3C
26
E3
67
66
36
3C
3C
18
18
18
18
ENDCHAR
STARTCHAR 0177
ENCODING 375
SWIDTH 576 0
DWIDTH 8 0
BBX 8 14 0 -3
BITMAP
18
1C
36
80
63
66
76
36
3C
1C
18
18
70
60
ENDCHAR
STARTCHAR 0178
ENCODING 376
SWIDTH 576 0
DWIDTH 8 0
BBX 8 12 0 0
BITMAP
26
00
E3
67
66
36
3C
3C
18
18
18
18
ENDCHAR
STARTCHAR 0179
ENCODING 377
SWIDTH 576 0
DWIDTH 8 0
BBX 8 12 0 0
BITMAP
0E
18
7F
7F
0E
0C
1C
18
38
70
7F
FF
ENDCHAR
STARTCHAR 017A
ENCODING 378
SWIDTH 576 0
DWIDTH 8 0
BBX 6 11 1 0
BITMAP
18
10
30
00
FC
18
38
30
70
60
FC
ENDCHAR
STARTCHAR 017B
ENCODING 379
SWIDTH 576 0
DWIDTH 8 0
BBX 8 12 0 0
BITMAP
18
18
7F
7F
0E
0C
1C
18
38
70
7F
FF
ENDCHAR
STARTCHAR 017C
ENCODING 380
SWIDTH 576 0
DWIDTH 8 0
BBX 6 10 1 0
BITMAP
30
30
00
FC
18
38
30
70
60
FC
ENDCHAR
STARTCHAR 017D
ENCODING 381
SWIDTH 576 0
DWIDTH 8 0
BBX 8 12 0 0
BITMAP
3E
18
7F
7F
0E
0C
1C
18
38
70
7F
FF
ENDCHAR
STARTCHAR 017E
ENCODING 382
SWIDTH 576 0
DWIDTH 8 0
BBX 6 11 1 0
BITMAP
CC
78
30
00
FC
18
38
30
70
60
FC
ENDCHAR
STARTCHAR 017F
ENCODING 383
SWIDTH 576 0
DWIDTH 8 0
BBX 7 10 1 0
BITMAP
1E
3A
30
F0
F0
30
30
30
FE
FE
ENDCHAR
STARTCHAR 018F
ENCODING 399
SWIDTH 576 0
DWIDTH 8 0
BBX 8 10 0 0
BITMAP
1C
7E
E7
E3
03
FF
E3
E3
7E
3E
ENDCHAR
STARTCHAR 0191
ENCODING 401
SWIDTH 576 0
DWIDTH 8 0
BBX 8 13 -1 -3
BITMAP
3F
3F
30
30
3F
3F
30
30
30
30
30
F0
60
ENDCHAR
STARTCHAR 0192
ENCODING 402
SWIDTH 576 0
DWIDTH 8 0
BBX 8 13 0 -3
BITMAP
0F
0C
1C
3E
3E
18
18
18
18
38
30
F0
60
ENDCHAR
STARTCHAR 0197
ENCODING 407
SWIDTH 576 0
DWIDTH 8 0
BBX 6 10 1 0
BITMAP
FC
FC
30
30
FC
FC
30
30
FC
FC
ENDCHAR
STARTCHAR 019D
ENCODING 413
SWIDTH 576 0
DWIDTH 8 0
BBX 9 13 -1 -3
BITMAP
3380
3380
3B80
3B80
3F80
3F80
3780
3780
3380
3380
3000
F000
4000
ENDCHAR
STARTCHAR 01A0
ENCODING 416
SWIDTH 576 0
DWIDTH 8 0
BBX 9 11 0 0
BITMAP
0180
1F00
7E00
6700
E300
E300
E300
E300
E300
7F00
3E00
ENDCHAR
STARTCHAR 01A1
ENCODING 417
SWIDTH 576 0
DWIDTH 8 0
BBX 8 9 1 0
BITMAP
03
03
7E
CC
CE
CE
CE
CC
78
ENDCHAR
STARTCHAR 01AF
ENCODING 431
SWIDTH 576 0
DWIDTH 8 0
BBX 8 11 1 0
BITMAP
03
C7
C6
C6
C6
C6
C6
C6
CE
FC
7C
ENDCHAR
STARTCHAR 01B0
ENCODING 432
SWIDTH 576 0
DWIDTH 8 0
BBX 8 9 1 0
BITMAP
03
03
CE
CC
CC
CC
CC
FC
F6
ENDCHAR
STARTCHAR 01C4
ENCODING 452
SWIDTH 576 0
DWIDTH 8 0
BBX 8 12 0 0
BITMAP
07
00
E7
F7
DB
DB
DA
DE
DE
DE
F7
FF
ENDCHAR
STARTCHAR 01C5
ENCODING 453
SWIDTH 576 0
DWIDTH 8 0
BBX 8 10 0 0
BITMAP
E5
F6
D8
DF
DB
DA
DA
DE
F6
F7
ENDCHAR
STARTCHAR 01C6
ENCODING 454
SWIDTH 576 0
DWIDTH 8 0
BBX 8 10 0 0
BITMAP
15
12
10
F7
D3
92
92
96
D4
77
ENDCHAR
STARTCHAR 01C7
ENCODING 455
SWIDTH 576 0
DWIDTH 8 0
BBX 7 13 1 -3
BITMAP
CE
CE
CE
CE
CE
CE
CE
CE
FE
FE
EE
7C
38
ENDCHAR
STARTCHAR 01C8
ENCODING 456
SWIDTH 576 0
DWIDTH 8 0
BBX 6 13 1 -3
BITMAP
CC
CC
C0
CC
CC
CC
CC
CC
FC
FC
0C
3C
18
ENDCHAR
STARTCHAR 01C9
ENCODING 457
SWIDTH 576 0
DWIDTH 8 0
BBX 6 13 1 -3
BITMAP
CC
CC
C0
DC
CC
CC
CC
CC
CC
CC
0C
3C
18
ENDCHAR
STARTCHAR 01CA
ENCODING 458
SWIDTH 576 0
DWIDTH 8 0
BBX 7 13 1 -3
BITMAP
B6
B6
F6
F6
F6
F6
B6
B6
B6
B6
66
7C
18
ENDCHAR
STARTCHAR 01CB
ENCODING 459
SWIDTH 576 0
DWIDTH 8 0
BBX 7 13 1 -3
BITMAP
B6
F6
F0
F6
F6
F6
F6
F6
F6
D6
06
1C
08
ENDCHAR
STARTCHAR 01CC
ENCODING 460
SWIDTH 576 0
DWIDTH 8 0
BBX 7 13 1 -3
BITMAP
06
06
00
F6
F6
B6
B6
B6
B6
B6
06
1E
08
ENDCHAR
STARTCHAR 01CD
ENCODING 461
SWIDTH 576 0
DWIDTH 8 0
BBX 8 12 0 0
BITMAP
3E
18
1C
3C
3C
3C
36
66
7E
7F
E3
C3
ENDCHAR
STARTCHAR 01CE
ENCODING 462
SWIDTH 576 0
DWIDTH 8 0
BBX 7 11 1 0
BITMAP
CC
78
30
00
7C
CC
0C
FC
CC
CC
FE
ENDCHAR
STARTCHAR 01CF
ENCODING 463
SWIDTH 576 0
DWIDTH 8 0
BBX 6 12 1 0
BITMAP
7C
30
FC
FC
30
30
30
30
30
30
FC
FC
ENDCHAR
STARTCHAR 01D0
ENCODING 464
SWIDTH 576 0
DWIDTH 8 0
BBX 7 11 1 0
BITMAP
44
28
38
00
F8
F8
18
18
18
FE
FE
ENDCHAR
STARTCHAR 01D1
ENCODING 465
SWIDTH 576 0
DWIDTH 8 0
BBX 8 12 0 0
BITMAP
3E
18
1C
7E
67
E3
E3
E3
E3
E3
7F
3E
ENDCHAR
STARTCHAR 01D2
ENCODING 466
SWIDTH 576 0
DWIDTH 8 0
BBX 7 11 1 0
BITMAP
CC
78
30
00
7C
CC
CE
CE
CE
CC
78
ENDCHAR
STARTCHAR 01D3
ENCODING 467
SWIDTH 576 0
DWIDTH 8 0
BBX 7 12 1 0
BITMAP
7C
30
C6
C6
C6
C6
C6
C6
C6
CE
FC
7C
ENDCHAR
STARTCHAR 01D4
ENCODING 468
SWIDTH 576 0
DWIDTH 8 0
BBX 7 11 1 0
BITMAP
CC
78
30
00
CC
CC
CC
CC
CC
FC
F6
ENDCHAR
STARTCHAR 01D5
ENCODING 469
SWIDTH 576 0
DWIDTH 8 0
BBX 7 14 1 0
BITMAP
7C
00
6C
00
C6
C6
C6
C6
C6
C6
C6
CE
FC
7C
ENDCHAR
STARTCHAR 01D6
ENCODING 470
SWIDTH 576 0
DWIDTH 8 0
BBX 7 12 1 0
BITMAP
FC
00
EC
EC
00
CC
CC
CC
CC
CC
FC
F6
ENDCHAR
STARTCHAR 01D7
ENCODING 471
SWIDTH 576 0
DWIDTH 8 0
BBX 7 15 1 0
BITMAP
1C
30
00
CC
00
C6
C6
C6
C6
C6
C6
C6
CE
FC
7C
ENDCHAR
STARTCHAR 01D8
ENCODING 472
SWIDTH 576 0
DWIDTH 8 0
BBX 7 13 1 0
BITMAP
1C
30
00
CC
CC
00
CC
CC
CC
CC
CC
FC
F6
ENDCHAR
STARTCHAR 01D9
ENCODING 473
SWIDTH 576 0
DWIDTH 8 0
BBX 7 15 1 0
BITMAP
4C
38
00
CC
00
C6
C6
C6
C6
C6
C6
C6
CE
FC
7C
ENDCHAR
STARTCHAR 01DA
ENCODING 474
SWIDTH 576 0
DWIDTH 8 0
BBX 7 13 1 0
BITMAP
CC
78
00
CC
CC
00
CC
CC
CC
CC
CC
FC
F6
ENDCHAR
STARTCHAR 01DB
ENCODING 475
SWIDTH 576 0
DWIDTH 8 0
BBX 7 15 1 0
BITMAP
60
30
00
CC
00
C6
C6
C6
C6
C6
C6
C6
CE
FC
7C
ENDCHAR
STARTCHAR 01DC
ENCODING 476
SWIDTH 576 0
DWIDTH 8 0
BBX 7 13 1 0
BITMAP
60
30
00
CC
CC
00
CC
CC
CC
CC
CC
FC
F6
ENDCHAR
STARTCHAR 01E4
ENCODING 484
SWIDTH 576 0
DWIDTH 8 0
BBX 9 10 0 0
BITMAP
1C00
7E00
6700
E300
E000
EF00
E300
EF80
7700
3D00
ENDCHAR
STARTCHAR 01E5
ENCODING 485
SWIDTH 576 0
DWIDTH 8 0
BBX 9 11 0 -3
BITMAP
0300
3E00
6600
6600
3E00
6000
7E00
7F00
FF80
6300
3E00
ENDCHAR
STARTCHAR 01E6
ENCODING 486
SWIDTH 576 0
DWIDTH 8 0
BBX 8 12 0 0
BITMAP
3E
18
1C
7E
67
E3
E0
EF
E3
E3
7F
3D
ENDCHAR
STARTCHAR 01E7
ENCODING 487
SWIDTH 576 0
DWIDTH 8 0
BBX 8 14 0 -3
BITMAP
66
3C
18
03
3E
66
66
3E
60
7E
7F
C3
7F
3E
ENDCHAR
STARTCHAR 01EA
ENCODING 490
SWIDTH 576 0
DWIDTH 8 0
BBX 8 12 0 -2
BITMAP
1C
7E
67
E3
E3
E3
E3
E3
7F
3E
08
1E
ENDCHAR
STARTCHAR 01EB
ENCODING 491
SWIDTH 576 0
DWIDTH 8 0
BBX 7 9 1 -2
BITMAP
7C
CC
CE
CE
CE
CC
78
30
38
ENDCHAR
STARTCHAR 01FA
ENCODING 506
SWIDTH 576 0
DWIDTH 8 0
BBX 8 15 0 0
BITMAP
0C
00
18
14
18
1C
3C
3C
3C
36
66
7E
7F
E3
C3
ENDCHAR
STARTCHAR 01FB
ENCODING 507
SWIDTH 576 0
DWIDTH 8 0
BBX 7 13 1 0
BITMAP
18
00
30
28
30
00
7C
CC
0C
FC
CC
CC
FE
ENDCHAR
STARTCHAR 01FC
ENCODING 508
SWIDTH 576 0
DWIDTH 8 0
BBX 8 12 0 0
BITMAP
06
0C
3F
3F
3C
3C
6F
6F
7C
7C
CF
CF
ENDCHAR
STARTCHAR 01FD
ENCODING 509
SWIDTH 576 0
DWIDTH 8 0
BBX 8 11 0 0
BITMAP
0C
08
18
00
7F
D9
19
7F
D9
D9
7F
ENDCHAR
STARTCHAR 01FE
ENCODING 510
SWIDTH 576 0
DWIDTH 8 0
BBX 8 13 0 -1
BITMAP
0E
18
1F
7E
67
E7
EB
FB
F3
E3
7F
7E
C0
ENDCHAR
STARTCHAR 01FF
ENCODING 511
SWIDTH 576 0
DWIDTH 8 0
BBX 7 12 1 -1
BITMAP
18
10
30
04
7C
CC
DE
DE
EE
CC
78
80
ENDCHAR
STARTCHAR 0200
ENCODING 512
SWIDTH 576 0
DWIDTH 8 0
BBX 8 12 0 0
BITMAP
FC
34
1C
3C
3C
3C
36
66
7E
7F
E3
C3
ENDCHAR
STARTCHAR 0201
ENCODING 513
SWIDTH 576 0
DWIDTH 8 0
BBX 8 10 0 0
BITMAP
F8
34
00
3E
66
06
7E
66
66
7F
ENDCHAR
STARTCHAR 0202
ENCODING 514
SWIDTH 576 0
DWIDTH 8 0
BBX 8 12 0 0
BITMAP
3E
22
1C
3C
3C
3C
36
66
7E
7F
E3
C3
ENDCHAR
STARTCHAR 0203
ENCODING 515
SWIDTH 576 0
DWIDTH 8 0
BBX 7 10 1 0
BITMAP
78
CC
00
7C
CC
0C
FC
CC
CC
FE
ENDCHAR
STARTCHAR 0204
ENCODING 516
SWIDTH 576 0
DWIDTH 8 0
BBX 7 12 1 0
BITMAP
F8
68
FE
FC
C0
C0
FC
FC
C0
C0
FC
FE
ENDCHAR
STARTCHAR 0205
ENCODING 517
SWIDTH 576 0
DWIDTH 8 0
BBX 7 10 1 0
BITMAP
F8
68
00
7C
CC
C6
FE
C6
CC
7C
ENDCHAR
STARTCHAR 0206
ENCODING 518
SWIDTH 576 0
DWIDTH 8 0
BBX 7 12 1 0
BITMAP
7C
44
FE
FC
C0
C0
FC
FC
C0
C0
FC
FE
ENDCHAR
STARTCHAR 0207
ENCODING 519
SWIDTH 576 0
DWIDTH 8 0
BBX 7 10 1 0
BITMAP
78
44
00
7C
CC
C6
FE
C6
CC
7C
ENDCHAR
STARTCHAR 0208
ENCODING 520
SWIDTH 576 0
DWIDTH 8 0
BBX 7 12 0 0
BITMAP
FC
34
7E
7E
18
18
18
18
18
18
7E
7E
ENDCHAR
STARTCHAR 0209
ENCODING 521
SWIDTH 576 0
DWIDTH 8 0
BBX 7 10 1 0
BITMAP
D8
6C
00
F8
F8
18
18
18
FE
FE
ENDCHAR
STARTCHAR 020A
ENCODING 522
SWIDTH 576 0
DWIDTH 8 0
BBX 6 12 1 0
BITMAP
7C
44
FC
FC
30
30
30
30
30
30
FC
FC
ENDCHAR
STARTCHAR 020B
ENCODING 523
SWIDTH 576 0
DWIDTH 8 0
BBX 7 10 1 0
BITMAP
7C
44
00
F8
F8
18
18
18
FE
FE
ENDCHAR
STARTCHAR 020C
ENCODING 524
SWIDTH 576 0
DWIDTH 8 0
BBX 8 12 0 0
BITMAP
FC
34
1C
7E
67
E3
E3
E3
E3
E3
7F
3E
ENDCHAR
STARTCHAR 020D
ENCODING 525
SWIDTH 576 0
DWIDTH 8 0
BBX 7 10 1 0
BITMAP
F8
68
00
7C
CC
CE
CE
CE
CC
78
ENDCHAR
STARTCHAR 020E
ENCODING 526
SWIDTH 576 0
DWIDTH 8 0
BBX 8 12 0 0
BITMAP
3E
22
1C
7E
67
E3
E3
E3
E3
E3
7F
3E
ENDCHAR
STARTCHAR 020F
ENCODING 527
SWIDTH 576 0
DWIDTH 8 0
BBX 7 10 1 0
BITMAP
78
44
00
7C
CC
CE
CE
CE
CC
78
ENDCHAR
STARTCHAR 0210
ENCODING 528
SWIDTH 576 0
DWIDTH 8 0
BBX 9 12 0 0
BITMAP
FC00
3400
7C00
7F00
6700
6300
6700
7E00
6700
6300
6300
6380
ENDCHAR
STARTCHAR 0211
ENCODING 529
SWIDTH 576 0
DWIDTH 8 0
BBX 7 10 1 0
BITMAP
F8
6C
00
FE
F6
66
60
60
FC
FC
ENDCHAR
STARTCHAR 0212
ENCODING 530
SWIDTH 576 0
DWIDTH 8 0
BBX 8 12 1 0
BITMAP
7C
44
F8
FE
CE
C6
CE
FC
CE
C6
C6
C7
ENDCHAR
STARTCHAR 0213
ENCODING 531
SWIDTH 576 0
DWIDTH 8 0
BBX 7 10 1 0
BITMAP
7C
44
00
FE
F6
66
60
60
FC
FC
ENDCHAR
STARTCHAR 0214
ENCODING 532
SWIDTH 576 0
DWIDTH 8 0
BBX 8 12 0 0
BITMAP
FC
34
63
63
63
63
63
63
63
67
7E
3E
ENDCHAR
STARTCHAR 0215
ENCODING 533
SWIDTH 576 0
DWIDTH 8 0
BBX 8 10 0 0
BITMAP
F8
34
00
66
66
66
66
66
7E
7B
ENDCHAR
STARTCHAR 0216
ENCODING 534
SWIDTH 576 0
DWIDTH 8 0
BBX 7 12 1 0
BITMAP
7C
44
C6
C6
C6
C6
C6
C6
C6
CE
FC
7C
ENDCHAR
STARTCHAR 0217
ENCODING 535
SWIDTH 576 0
DWIDTH 8 0
BBX 7 10 1 0
BITMAP
78
C4
00
CC
CC
CC
CC
CC
FC
F6
ENDCHAR
STARTCHAR 0218
ENCODING 536
SWIDTH 576 0
DWIDTH 8 0
BBX 8 15 0 -5
BITMAP
1C
7E
63
E0
7C
3F
07
C3
7F
3E
00
18
18
08
18
ENDCHAR
STARTCHAR 0219
ENCODING 537
SWIDTH 576 0
DWIDTH 8 0
BBX 7 12 1 -5
BITMAP
7C
CC
E0
7C
0E
CC
7C
00
30
30
10
30
ENDCHAR
STARTCHAR 021A
ENCODING 538
SWIDTH 576 0
DWIDTH 8 0
BBX 8 15 0 -5
BITMAP
FF
FF
18
18
18
18
18
18
18
18
00
18
18
08
18
ENDCHAR
STARTCHAR 021B
ENCODING 539
SWIDTH 576 0
DWIDTH 8 0
BBX 7 14 1 -5
BITMAP
30
30
FE
FE
70
70
70
3E
3E
00
18
18
08
10
ENDCHAR
STARTCHAR 022A
ENCODING 554
SWIDTH 576 0
DWIDTH 8 0
BBX 8 14 0 0
BITMAP
3E
00
36
00
1C
7E
67
E3
E3
E3
E3
E3
7F
3E
ENDCHAR
STARTCHAR 022B
ENCODING 555
SWIDTH 576 0
DWIDTH 8 0
BBX 7 12 1 0
BITMAP
7C
00
6C
6C
00
7C
CC
CE
CE
CE
CC
78
ENDCHAR
STARTCHAR 022C
ENCODING 556
SWIDTH 576 0
DWIDTH 8 0
BBX 8 14 0 0
BITMAP
3E
00
7E
00
1C
7E
67
E3
E3
E3
E3
E3
7F
3E
ENDCHAR
STARTCHAR 022D
ENCODING 557
SWIDTH 576 0
DWIDTH 8 0
BBX 7 12 1 0
BITMAP
7C
00
7C
98
00
7C
CC
CE
CE
CE
CC
78
ENDCHAR
STARTCHAR 0230
ENCODING 560
SWIDTH 576 0
DWIDTH 8 0
BBX 8 14 0 0
BITMAP
3C
00
18
00
1C
7E
67
E3
E3
E3
E3
E3
7F
3E
ENDCHAR
STARTCHAR 0231
ENCODING 561
SWIDTH 576 0
DWIDTH 8 0
BBX 7 12 1 0
BITMAP
78
00
30
30
00
7C
CC
CE
CE
CE
CC
78
ENDCHAR
STARTCHAR 0232
ENCODING 562
SWIDTH 576 0
DWIDTH 8 0
BBX 8 12 0 0
BITMAP
3C
00
E3
67
66
36
3C
3C
18
18
18
18
ENDCHAR
STARTCHAR 0233
ENCODING 563
SWIDTH 576 0
DWIDTH 8 0
BBX 8 13 0 -3
BITMAP
3E
00
80
63
66
76
36
3C
1C
18
18
70
60
ENDCHAR
STARTCHAR 0237
ENCODING 567
SWIDTH 576 0
DWIDTH 8 0
BBX 5 10 1 -3
BITMAP
F8
F8
18
18
18
18
18
38
F0
60
ENDCHAR
STARTCHAR 0244
ENCODING 580
SWIDTH 576 0
DWIDTH 8 0
BBX 8 10 0 0
BITMAP
63
63
63
63
FF
63
63
67
7E
3E
ENDCHAR
STARTCHAR 0259
ENCODING 601
SWIDTH 576 0
DWIDTH 8 0
BBX 7 7 1 0
BITMAP
7C
CC
0E
FE
CE
CC
78
ENDCHAR
STARTCHAR 0268
ENCODING 616
SWIDTH 576 0
DWIDTH 8 0
BBX 7 10 1 0
BITMAP
10
10
00
F8
F8
7C
7C
18
FE
FE
ENDCHAR
STARTCHAR 026A
ENCODING 618
SWIDTH 576 0
DWIDTH 8 0
BBX 5 7 2 0
BITMAP
F8
F8
60
60
60
F8
F8
ENDCHAR
STARTCHAR 0272
ENCODING 626
SWIDTH 576 0
DWIDTH 8 0
BBX 8 10 -1 -3
BITMAP
3F
3B
33
33
33
33
33
30
F0
60
ENDCHAR
STARTCHAR 0289
ENCODING 649
SWIDTH 576 0
DWIDTH 8 0
BBX 8 7 0 0
BITMAP
66
66
FF
FF
66
7E
7B
ENDCHAR
STARTCHAR 02B9
ENCODING 697
SWIDTH 576 0
DWIDTH 8 0
BBX 2 2 3 8
BITMAP
C0
C0
ENDCHAR
STARTCHAR 02BA
ENCODING 698
SWIDTH 576 0
DWIDTH 8 0
BBX 5 2 2 8
BITMAP
D8
B0
ENDCHAR
STARTCHAR 02BC
ENCODING 700
SWIDTH 576 0
DWIDTH 8 0
BBX 2 3 3 8
BITMAP
C0
40
C0
ENDCHAR
STARTCHAR 02C6
ENCODING 710
SWIDTH 576 0
DWIDTH 8 0
BBX 6 3 1 8
BITMAP
30
38
CC
ENDCHAR
STARTCHAR 02C7
ENCODING 711
SWIDTH 576 0
DWIDTH 8 0
BBX 6 3 1 8
BITMAP
CC
78
30
ENDCHAR
STARTCHAR 02C9
ENCODING 713
SWIDTH 576 0
DWIDTH 8 0
BBX 4 1 2 9
BITMAP
F0
ENDCHAR
STARTCHAR 02CD
ENCODING 717
SWIDTH 576 0
DWIDTH 8 0
BBX 5 1 2 -2
BITMAP
F8
ENDCHAR
STARTCHAR 02D8
ENCODING 728
SWIDTH 576 0
DWIDTH 8 0
BBX 5 2 2 8
BITMAP
98
70
ENDCHAR
STARTCHAR 02D9
ENCODING 729
SWIDTH 576 0
DWIDTH 8 0
BBX 2 2 3 8
BITMAP
C0
C0
ENDCHAR
STARTCHAR 02DA
ENCODING 730
SWIDTH 576 0
DWIDTH 8 0
BBX 3 3 3 8
BITMAP
C0
A0
C0
ENDCHAR
STARTCHAR 02DB
ENCODING 731
SWIDTH 576 0
DWIDTH 8 0
BBX 3 2 3 -2
BITMAP
C0
E0
ENDCHAR
STARTCHAR 02DC
ENCODING 732
SWIDTH 576 0
DWIDTH 8 0
BBX 6 2 1 8
BITMAP
7C
98
ENDCHAR
STARTCHAR 02DD
ENCODING 733
SWIDTH 576 0
DWIDTH 8 0
BBX 6 2 1 8
BITMAP
6C
D8
ENDCHAR
STARTCHAR 0300
ENCODING 768
SWIDTH 0 0
DWIDTH 0 0
BBX 3 3 3 8
BITMAP
C0
C0
60
ENDCHAR
STARTCHAR 0301
ENCODING 769
SWIDTH 0 0
DWIDTH 0 0
BBX 3 3 3 8
BITMAP
60
C0
80
ENDCHAR
STARTCHAR 0302
ENCODING 770
SWIDTH 0 0
DWIDTH 0 0
BBX 6 3 1 8
BITMAP
30
38
CC
ENDCHAR
STARTCHAR 0303
ENCODING 771
SWIDTH 0 0
DWIDTH 0 0
BBX 6 2 1 8
BITMAP
7C
98
ENDCHAR
STARTCHAR 0304
ENCODING 772
SWIDTH 0 0
DWIDTH 0 0
BBX 5 1 2 9
BITMAP
F8
ENDCHAR
STARTCHAR 0306
ENCODING 774
SWIDTH 0 0
DWIDTH 0 0
BBX 5 2 2 8
BITMAP
98
70
ENDCHAR
STARTCHAR 0307
ENCODING 775
SWIDTH 0 0
DWIDTH 0 0
BBX 2 2 3 8
BITMAP
C0
C0
ENDCHAR
STARTCHAR 0308
ENCODING 776
SWIDTH 0 0
DWIDTH 0 0
BBX 5 2 2 8
BITMAP
98
98
ENDCHAR
STARTCHAR 0309
ENCODING 777
SWIDTH 0 0
DWIDTH 0 0
BBX 3 3 3 8
BITMAP
C0
60
40
ENDCHAR
STARTCHAR 030A
ENCODING 778
SWIDTH 0 0
DWIDTH 0 0
BBX 3 3 3 8
BITMAP
C0
A0
C0
ENDCHAR
STARTCHAR 030B
ENCODING 779
SWIDTH 0 0
DWIDTH 0 0
BBX 6 2 1 8
BITMAP
6C
D8
ENDCHAR
STARTCHAR 030C
ENCODING 780
SWIDTH 0 0
DWIDTH 0 0
BBX 6 3 1 8
BITMAP
CC
78
30
ENDCHAR
STARTCHAR 030F
ENCODING 783
SWIDTH 0 0
DWIDTH 0 0
BBX 6 2 1 8
BITMAP
F8
2C
ENDCHAR
STARTCHAR 0311
ENCODING 785
SWIDTH 0 0
DWIDTH 0 0
BBX 5 2 2 8
BITMAP
F0
88
ENDCHAR
STARTCHAR 0312
ENCODING 786
SWIDTH 0 0
DWIDTH 0 0
BBX 2 5 3 8
BITMAP
40
C0
80
C0
C0
ENDCHAR
STARTCHAR 0313
ENCODING 787
SWIDTH 0 0
DWIDTH 0 0
BBX 2 5 3 8
BITMAP
C0
C0
C0
40
80
ENDCHAR
STARTCHAR 031B
ENCODING 795
SWIDTH 0 0
DWIDTH 0 0
BBX 3 3 3 6
BITMAP
60
C0
80
ENDCHAR
STARTCHAR 0323
ENCODING 803
SWIDTH 0 0
DWIDTH 0 0
BBX 2 2 3 -3
BITMAP
C0
C0
ENDCHAR
STARTCHAR 0324
ENCODING 804
SWIDTH 0 0
DWIDTH 0 0
BBX 5 2 2 -3
BITMAP
98
98
ENDCHAR
STARTCHAR 0326
ENCODING 806
SWIDTH 0 0
DWIDTH 0 0
BBX 2 4 3 -5
BITMAP
C0
C0
40
C0
ENDCHAR
STARTCHAR 0327
ENCODING 807
SWIDTH 0 0
DWIDTH 0 0
BBX 3 3 3 -3
BITMAP
40
20
C0
ENDCHAR
STARTCHAR 0328
ENCODING 808
SWIDTH 0 0
DWIDTH 0 0
BBX 3 2 3 -2
BITMAP
C0
E0
ENDCHAR
STARTCHAR 032E
ENCODING 814
SWIDTH 0 0
DWIDTH 0 0
BBX 5 2 2 -3
BITMAP
98
F0
ENDCHAR
STARTCHAR 0330
ENCODING 816
SWIDTH 0 0
DWIDTH 0 0
BBX 6 2 1 -3
BITMAP
7C
98
ENDCHAR
STARTCHAR 0331
ENCODING 817
SWIDTH 0 0
DWIDTH 0 0
BBX 5 1 2 -2
BITMAP
F8
ENDCHAR
STARTCHAR 0335
ENCODING 821
SWIDTH 0 0
DWIDTH 0 0
BBX 6 1 1 4
BITMAP
FC
ENDCHAR
STARTCHAR 0336
ENCODING 822
SWIDTH 0 0
DWIDTH 0 0
BBX 8 2 0 4
BITMAP
FF
FF
ENDCHAR
STARTCHAR 0337
ENCODING 823
SWIDTH 0 0
DWIDTH 0 0
BBX 6 4 1 3
BITMAP
04
18
60
80
ENDCHAR
STARTCHAR 0338
ENCODING 824
SWIDTH 0 0
DWIDTH 0 0
BBX 6 9 1 -1
BITMAP
04
0C
08
10
10
20
40
40
80
ENDCHAR
STARTCHAR 0394
ENCODING 916
SWIDTH 576 0
DWIDTH 8 0
BBX 8 10 0 0
BITMAP
1C
3C
3C
3C
36
66
66
67
FF
FF
ENDCHAR
STARTCHAR 03A9
ENCODING 937
SWIDTH 576 0
DWIDTH 8 0
BBX 8 10 0 0
BITMAP
1C
7E
67
E3
E3
E3
E3
63
E7
F7
ENDCHAR
STARTCHAR 03BC
ENCODING 956
SWIDTH 576 0
DWIDTH 8 0
BBX 7 9 1 -2
BITMAP
CC
CC
CC
CC
CC
FC
F6
C0
C0
ENDCHAR
STARTCHAR 03C0
ENCODING 960
SWIDTH 576 0
DWIDTH 8 0
BBX 8 7 0 0
BITMAP
FF
36
76
66
66
66
66
ENDCHAR
STARTCHAR 1E24
ENCODING 7716
SWIDTH 576 0
DWIDTH 8 0
BBX 7 13 1 -3
BITMAP
CE
CE
CE
CE
FE
FE
CE
CE
CE
CE
00
30
30
ENDCHAR
STARTCHAR 1E25
ENCODING 7717
SWIDTH 576 0
DWIDTH 8 0
BBX 6 13 1 -3
BITMAP
C0
C0
C0
FC
EC
CC
CC
CC
CC
CC
00
30
30
ENDCHAR
STARTCHAR 1E62
ENCODING 7778
SWIDTH 576 0
DWIDTH 8 0
BBX 8 13 0 -3
BITMAP
1C
7E
63
E0
7C
3F
07
C3
7F
3E
00
18
18
ENDCHAR
STARTCHAR 1E63
ENCODING 7779
SWIDTH 576 0
DWIDTH 8 0
BBX 7 10 1 -3
BITMAP
7C
CC
E0
7C
0E
CC
7C
00
30
30
ENDCHAR
STARTCHAR 1E6C
ENCODING 7788
SWIDTH 576 0
DWIDTH 8 0
BBX 8 13 0 -3
BITMAP
FF
FF
18
18
18
18
18
18
18
18
00
18
18
ENDCHAR
STARTCHAR 1E6D
ENCODING 7789
SWIDTH 576 0
DWIDTH 8 0
BBX 7 12 1 -3
BITMAP
30
30
FE
FE
70
70
70
3E
3E
00
18
18
ENDCHAR
STARTCHAR 1E80
ENCODING 7808
SWIDTH 576 0
DWIDTH 8 0
BBX 8 12 0 0
BITMAP
30
18
C9
DB
DB
DB
DF
7F
7F
77
76
66
ENDCHAR
STARTCHAR 1E81
ENCODING 7809
SWIDTH 576 0
DWIDTH 8 0
BBX 8 11 0 0
BITMAP
30
18
08
00
D9
DB
DF
5F
77
76
76
ENDCHAR
STARTCHAR 1E82
ENCODING 7810
SWIDTH 576 0
DWIDTH 8 0
BBX 8 12 0 0
BITMAP
0E
18
C9
DB
DB
DB
DF
7F
7F
77
76
66
ENDCHAR
STARTCHAR 1E83
ENCODING 7811
SWIDTH 576 0
DWIDTH 8 0
BBX 8 11 0 0
BITMAP
0C
0C
18
00
D9
DB
DF
5F
77
76
76
ENDCHAR
STARTCHAR 1E84
ENCODING 7812
SWIDTH 576 0
DWIDTH 8 0
BBX 8 12 0 0
BITMAP
26
00
C9
DB
DB
DB
DF
7F
7F
77
76
66
ENDCHAR
STARTCHAR 1E85
ENCODING 7813
SWIDTH 576 0
DWIDTH 8 0
BBX 8 10 0 0
BITMAP
26
26
00
D9
DB
DF
5F
77
76
76
ENDCHAR
STARTCHAR 1E9E
ENCODING 7838
SWIDTH 576 0
DWIDTH 8 0
BBX 7 10 1 0
BITMAP
38
FC
C6
C6
DC
DC
C6
C6
DE
DC
ENDCHAR
STARTCHAR 1EA0
ENCODING 7840
SWIDTH 576 0
DWIDTH 8 0
BBX 8 13 0 -3
BITMAP
1C
3C
3C
3C
36
66
7E
7F
E3
C3
00
18
18
ENDCHAR
STARTCHAR 1EA1
ENCODING 7841
SWIDTH 576 0
DWIDTH 8 0
BBX 7 10 1 -3
BITMAP
7C
CC
0C
FC
CC
CC
FE
00
30
30
ENDCHAR
STARTCHAR 1EA2
ENCODING 7842
SWIDTH 576 0
DWIDTH 8 0
BBX 8 14 0 0
BITMAP
18
1C
0C
10
1C
3C
3C
3C
36
66
7E
7F
E3
C3
ENDCHAR
STARTCHAR 1EA3
ENCODING 7843
SWIDTH 576 0
DWIDTH 8 0
BBX 7 11 1 0
BITMAP
30
18
10
00
7C
CC
0C
FC
CC
CC
FE
ENDCHAR
STARTCHAR 1EA4
ENCODING 7844
SWIDTH 576 0
DWIDTH 8 0
BBX 8 15 0 0
BITMAP
0C
08
10
3C
42
1C
3C
3C
3C
36
66
7E
7F
E3
C3
ENDCHAR
STARTCHAR 1EA5
ENCODING 7845
SWIDTH 576 0
DWIDTH 8 0
BBX 7 13 1 0
BITMAP
18
10
20
30
CC
00
7C
CC
0C
FC
CC
CC
FE
ENDCHAR
STARTCHAR 1EA6
ENCODING 7846
SWIDTH 576 0
DWIDTH 8 0
BBX 8 15 0 0
BITMAP
30
18
00
3C
42
1C
3C
3C
3C
36
66
7E
7F
E3
C3
ENDCHAR
STARTCHAR 1EA7
ENCODING 7847
SWIDTH 576 0
DWIDTH 8 0
BBX 7 13 1 0
BITMAP
60
30
00
30
CC
00
7C
CC
0C
FC
CC
CC
FE
ENDCHAR
STARTCHAR 1EA8
ENCODING 7848
SWIDTH 576 0
DWIDTH 8 0
BBX 8 16 0 0
BITMAP
18
04
08
00
3C
42
1C
3C
3C
3C
36
66
7E
7F
E3
C3
ENDCHAR
STARTCHAR 1EA9
ENCODING 7849
SWIDTH 576 0
DWIDTH 8 0
BBX 7 14 1 0
BITMAP
30
30
10
00
38
CC
00
7C
CC
0C
FC
CC
CC
FE
ENDCHAR
STARTCHAR 1EAA
ENCODING 7850
SWIDTH 576 0
DWIDTH 8 0
BBX 8 15 0 0
BITMAP
32
3C
00
3C
42
1C
3C
3C
3C
36
66
7E
7F
E3
C3
ENDCHAR
STARTCHAR 1EAB
ENCODING 7851
SWIDTH 576 0
DWIDTH 8 0
BBX 7 13 1 0
BITMAP
24
F8
00
30
CC
00
7C
CC
0C
FC
CC
CC
FE
ENDCHAR
STARTCHAR 1EAC
ENCODING 7852
SWIDTH 576 0
DWIDTH 8 0
BBX 8 15 0 -3
BITMAP
3C
26
1C
3C
3C
3C
36
66
7E
7F
E3
C3
00
18
18
ENDCHAR
STARTCHAR 1EAD
ENCODING 7853
SWIDTH 576 0
DWIDTH 8 0
BBX 7 14 1 -3
BITMAP
30
78
CC
00
7C
CC
0C
FC
CC
CC
FE
00
30
30
ENDCHAR
STARTCHAR 1EAE
ENCODING 7854
SWIDTH 576 0
DWIDTH 8 0
BBX 8 15 0 0
BITMAP
04
0C
10
3E
00
1C
3C
3C
3C
36
66
7E
7F
E3
C3
ENDCHAR
STARTCHAR 1EAF
ENCODING 7855
SWIDTH 576 0
DWIDTH 8 0
BBX 7 12 1 0
BITMAP
18
30
CC
30
00
7C
CC
0C
FC
CC
CC
FE
ENDCHAR
STARTCHAR 1EB0
ENCODING 7856
SWIDTH 576 0
DWIDTH 8 0
BBX 8 15 0 0
BITMAP
30
10
08
3E
00
1C
3C
3C
3C
36
66
7E
7F
E3
C3
ENDCHAR
STARTCHAR 1EB1
ENCODING 7857
SWIDTH 576 0
DWIDTH 8 0
BBX 7 12 1 0
BITMAP
60
30
CC
30
00
7C
CC
0C
FC
CC
CC
FE
ENDCHAR
STARTCHAR 1EB2
ENCODING 7858
SWIDTH 576 0
DWIDTH 8 0
BBX 8 15 0 0
BITMAP
1C
08
00
3E
00
1C
3C
3C
3C
36
66
7E
7F
E3
C3
ENDCHAR
STARTCHAR 1EB3
ENCODING 7859
SWIDTH 576 0
DWIDTH 8 0
BBX 7 13 1 0
BITMAP
30
10
20
CC
30
00
7C
CC
0C
FC
CC
CC
FE
ENDCHAR
STARTCHAR 1EB4
ENCODING 7860
SWIDTH 576 0
DWIDTH 8 0
BBX 8 15 0 0
BITMAP
32
3C
00
3E
00
1C
3C
3C
3C
36
66
7E
7F
E3
C3
ENDCHAR
STARTCHAR 1EB5
ENCODING 7861
SWIDTH 576 0
DWIDTH 8 0
BBX 7 13 1 0
BITMAP
24
F8
00
CC
30
00
7C
CC
0C
FC
CC
CC
FE
ENDCHAR
STARTCHAR 1EB6
ENCODING 7862
SWIDTH 576 0
DWIDTH 8 0
BBX 8 15 0 -3
BITMAP
3E
18
1C
3C
3C
3C
36
66
7E
7F
E3
C3
00
18
18
ENDCHAR
STARTCHAR 1EB7
ENCODING 7863
SWIDTH 576 0
DWIDTH 8 0
BBX 7 13 1 -3
BITMAP
CC
30
00
7C
CC
0C
FC
CC
CC
FE
00
30
30
ENDCHAR
STARTCHAR 1EB8
ENCODING 7864
SWIDTH 576 0
DWIDTH 8 0
BBX 7 13 1 -3
BITMAP
FE
FC
C0
C0
FC
FC
C0
C0
FC
FE
00
38
38
ENDCHAR
STARTCHAR 1EB9
ENCODING 7865
SWIDTH 576 0
DWIDTH 8 0
BBX 7 10 1 -3
BITMAP
7C
CC
C6
FE
C6
CC
7C
00
30
30
ENDCHAR
STARTCHAR 1EBA
ENCODING 7866
SWIDTH 576 0
DWIDTH 8 0
BBX 7 14 1 0
BITMAP
30
38
18
10
FE
FC
C0
C0
FC
FC
C0
C0
FC
FE
ENDCHAR
STARTCHAR 1EBB
ENCODING 7867
SWIDTH 576 0
DWIDTH 8 0
BBX 7 11 1 0
BITMAP
38
08
10
00
7C
CC
C6
FE
C6
CC
7C
ENDCHAR
STARTCHAR 1EBC
ENCODING 7868
SWIDTH 576 0
DWIDTH 8 0
BBX 7 12 1 0
BITMAP
7C
48
FE
FC
C0
C0
FC
FC
C0
C0
FC
FE
ENDCHAR
STARTCHAR 1EBD
ENCODING 7869
SWIDTH 576 0
DWIDTH 8 0
BBX 7 10 1 0
BITMAP
7C
D8
00
7C
CC
C6
FE
C6
CC
7C
ENDCHAR
STARTCHAR 1EBE
ENCODING 7870
SWIDTH 576 0
DWIDTH 8 0
BBX 7 15 1 0
BITMAP
0C
10
00
38
44
FE
FC
C0
C0
FC
FC
C0
C0
FC
FE
ENDCHAR
STARTCHAR 1EBF
ENCODING 7871
SWIDTH 576 0
DWIDTH 8 0
BBX 7 13 1 0
BITMAP
0C
18
00
38
4C
00
7C
CC
C6
FE
C6
CC
7C
ENDCHAR
STARTCHAR 1EC0
ENCODING 7872
SWIDTH 576 0
DWIDTH 8 0
BBX 7 15 1 0
BITMAP
60
30
00
38
44
FE
FC
C0
C0
FC
FC
C0
C0
FC
FE
ENDCHAR
STARTCHAR 1EC1
ENCODING 7873
SWIDTH 576 0
DWIDTH 8 0
BBX 7 13 1 0
BITMAP
60
30
00
38
4C
00
7C
CC
C6
FE
C6
CC
7C
ENDCHAR
STARTCHAR 1EC2
ENCODING 7874
SWIDTH 576 0
DWIDTH 8 0
BBX 7 16 1 0
BITMAP
30
08
10
00
38
44
FE
FC
C0
C0
FC
FC
C0
C0
FC
FE
ENDCHAR
STARTCHAR 1EC3
ENCODING 7875
SWIDTH 576 0
DWIDTH 8 0
BBX 7 14 1 0
BITMAP
30
28
10
00
38
4C
00
7C
CC
C6
FE
C6
CC
7C
ENDCHAR
STARTCHAR 1EC4
ENCODING 7876
SWIDTH 576 0
DWIDTH 8 0
BBX 7 15 1 0
BITMAP
24
7C
00
38
44
FE
FC
C0
C0
FC
FC
C0
C0
FC
FE
ENDCHAR
STARTCHAR 1EC5
ENCODING 7877
SWIDTH 576 0
DWIDTH 8 0
BBX 7 13 1 0
BITMAP
24
7C
00
38
4C
00
7C
CC
C6
FE
C6
CC
7C
ENDCHAR
STARTCHAR 1EC6
ENCODING 7878
SWIDTH 576 0
DWIDTH 8 0
BBX 7 15 1 -3
BITMAP
38
4C
FE
FC
C0
C0
FC
FC
C0
C0
FC
FE
00
38
38
ENDCHAR
STARTCHAR 1EC7
ENCODING 7879
SWIDTH 576 0
DWIDTH 8 0
BBX 7 14 1 -3
BITMAP
30
38
4C
00
7C
CC
C6
FE
C6
CC
7C
00
30
30
ENDCHAR
STARTCHAR 1EC8
ENCODING 7880
SWIDTH 576 0
DWIDTH 8 0
BBX 6 14 1 0
BITMAP
30
38
18
20
FC
FC
30
30
30
30
30
30
FC
FC
ENDCHAR
STARTCHAR 1EC9
ENCODING 7881
SWIDTH 576 0
DWIDTH 8 0
BBX 7 11 1 0
BITMAP
38
08
18
00
F8
F8
18
18
18
FE
FE
ENDCHAR
STARTCHAR 1ECA
ENCODING 7882
SWIDTH 576 0
DWIDTH 8 0
BBX 6 13 1 -3
BITMAP
FC
FC
30
30
30
30
30
30
FC
FC
00
30
30
ENDCHAR
STARTCHAR 1ECB
ENCODING 7883
SWIDTH 576 0
DWIDTH 8 0
BBX 7 13 1 -3
BITMAP
10
10
00
F8
F8
18
18
18
FE
FE
00
38
38
ENDCHAR
STARTCHAR 1ECC
ENCODING 7884
SWIDTH 576 0
DWIDTH 8 0
BBX 8 13 0 -3
BITMAP
1C
7E
67
E3
E3
E3
E3
E3
7F
3E
00
18
18
ENDCHAR
STARTCHAR 1ECD
ENCODING 7885
SWIDTH 576 0
DWIDTH 8 0
BBX 7 10 1 -3
BITMAP
7C
CC
CE
CE
CE
CC
78
00
30
30
ENDCHAR
STARTCHAR 1ECE
ENCODING 7886
SWIDTH 576 0
DWIDTH 8 0
BBX 8 14 0 0
BITMAP
18
1C
0C
10
1C
7E
67
E3
E3
E3
E3
E3
7F
3E
ENDCHAR
STARTCHAR 1ECF
ENCODING 7887
SWIDTH 576 0
DWIDTH 8 0
BBX 7 11 1 0
BITMAP
38
08
10
00
7C
CC
CE
CE
CE
CC
78
ENDCHAR
STARTCHAR 1ED0
ENCODING 7888
SWIDTH 576 0
DWIDTH 8 0
BBX 8 15 0 0
BITMAP
0C
08
10
3C
42
1C
7E
67
E3
E3
E3
E3
E3
7F
3E
ENDCHAR
STARTCHAR 1ED1
ENCODING 7889
SWIDTH 576 0
DWIDTH 8 0
BBX 7 13 1 0
BITMAP
0C
10
20
38
CC
00
7C
CC
CE
CE
CE
CC
78
ENDCHAR
STARTCHAR 1ED2
ENCODING 7890
SWIDTH 576 0
DWIDTH 8 0
BBX 8 15 0 0
BITMAP
30
18
00
3C
42
1C
7E
67
E3
E3
E3
E3
E3
7F
3E
ENDCHAR
STARTCHAR 1ED3
ENCODING 7891
SWIDTH 576 0
DWIDTH 8 0
BBX 7 13 1 0
BITMAP
60
30
00
38
CC
00
7C
CC
CE
CE
CE
CC
78
ENDCHAR
STARTCHAR 1ED4
ENCODING 7892
SWIDTH 576 0
DWIDTH 8 0
BBX 8 16 0 0
BITMAP
18
04
08
00
3C
42
1C
7E
67
E3
E3
E3
E3
E3
7F
3E
ENDCHAR
STARTCHAR 1ED5
ENCODING 7893
SWIDTH 576 0
DWIDTH 8 0
BBX 7 14 1 0
BITMAP
30
38
10
00
38
4C
00
7C
CC
CE
CE
CE
CC
78
ENDCHAR
STARTCHAR 1ED6
ENCODING 7894
SWIDTH 576 0
DWIDTH 8 0
BBX 8 15 0 0
BITMAP
32
3C
00
3C
42
1C
7E
67
E3
E3
E3
E3
E3
7F
3E
ENDCHAR
STARTCHAR 1ED7
ENCODING 7895
SWIDTH 576 0
DWIDTH 8 0
BBX 7 13 1 0
BITMAP
24
7C
00
38
4C
00
7C
CC
CE
CE
CE
CC
78
ENDCHAR
STARTCHAR 1ED8
ENCODING 7896
SWIDTH 576 0
DWIDTH 8 0
BBX 8 15 0 -3
BITMAP
3C
26
1C
7E
67
E3
E3
E3
E3
E3
7F
3E
00
18
18
ENDCHAR
STARTCHAR 1ED9
ENCODING 7897
SWIDTH 576 0
DWIDTH 8 0
BBX 7 14 1 -3
BITMAP
30
38
CC
00
7C
CC
CE
CE
CE
CC
78
00
30
30
ENDCHAR
STARTCHAR 1EDA
ENCODING 7898
SWIDTH 576 0
DWIDTH 8 0
BBX 9 12 0 0
BITMAP
0E00
1980
1F00
7E00
6700
E300
E300
E300
E300
E300
7F00
3E00
ENDCHAR
STARTCHAR 1EDB
ENCODING 7899
SWIDTH 576 0
DWIDTH 8 0
BBX 8 11 1 0
BITMAP
18
10
33
03
7E
CC
CE
CE
CE
CC
78
ENDCHAR
STARTCHAR 1EDC
ENCODING 7900
SWIDTH 576 0
DWIDTH 8 0
BBX 9 12 0 0
BITMAP
3000
1980
1F00
7E00
6700
E300
E300
E300
E300
E300
7F00
3E00
ENDCHAR
STARTCHAR 1EDD
ENCODING 7901
SWIDTH 576 0
DWIDTH 8 0
BBX 8 11 1 0
BITMAP
60
30
33
03
7E
CC
CE
CE
CE
CC
78
ENDCHAR
STARTCHAR 1EDE
ENCODING 7902
SWIDTH 576 0
DWIDTH 8 0
BBX 9 14 0 0
BITMAP
1800
1C00
0C00
1180
1F00
7E00
6700
E300
E300
E300
E300
E300
7F00
3E00
ENDCHAR
STARTCHAR 1EDF
ENCODING 7903
SWIDTH 576 0
DWIDTH 8 0
BBX 8 11 1 0
BITMAP
38
08
13
03
7E
CC
CE
CE
CE
CC
78
ENDCHAR
STARTCHAR 1EE0
ENCODING 7904
SWIDTH 576 0
DWIDTH 8 0
BBX 9 12 0 0
BITMAP
3E00
2580
1D80
7F00
6700
E300
E300
E300
E300
E300
7F00
3E00
ENDCHAR
STARTCHAR 1EE1
ENCODING 7905
SWIDTH 576 0
DWIDTH 8 0
BBX 8 10 1 0
BITMAP
7C
5B
03
7E
CC
CE
CE
CE
CC
78
ENDCHAR
STARTCHAR 1EE2
ENCODING 7906
SWIDTH 576 0
DWIDTH 8 0
BBX 9 14 0 -3
BITMAP
0180
1F00
7E00
6700
E300
E300
E300
E300
E300
7F00
3E00
0000
1800
1800
ENDCHAR
STARTCHAR 1EE3
ENCODING 7907
SWIDTH 576 0
DWIDTH 8 0
BBX 8 12 1 -3
BITMAP
03
03
7E
CC
CE
CE
CE
CC
78
00
30
30
ENDCHAR
STARTCHAR 1EE4
ENCODING 7908
SWIDTH 576 0
DWIDTH 8 0
BBX 7 13 1 -3
BITMAP
C6
C6
C6
C6
C6
C6
C6
CE
FC
7C
00
30
30
ENDCHAR
STARTCHAR 1EE5
ENCODING 7909
SWIDTH 576 0
DWIDTH 8 0
BBX 7 10 1 -3
BITMAP
CC
CC
CC
CC
CC
FC
F6
00
30
30
ENDCHAR
STARTCHAR 1EE6
ENCODING 7910
SWIDTH 576 0
DWIDTH 8 0
BBX 7 14 1 0
BITMAP
30
38
18
20
C6
C6
C6
C6
C6
C6
C6
CE
FC
7C
ENDCHAR
STARTCHAR 1EE7
ENCODING 7911
SWIDTH 576 0
DWIDTH 8 0
BBX 7 11 1 0
BITMAP
38
08
10
00
CC
CC
CC
CC
CC
FC
F6
ENDCHAR
STARTCHAR 1EE8
ENCODING 7912
SWIDTH 576 0
DWIDTH 8 0
BBX 8 12 1 0
BITMAP
1C
33
C7
C6
C6
C6
C6
C6
C6
CE
FC
7C
ENDCHAR
STARTCHAR 1EE9
ENCODING 7913
SWIDTH 576 0
DWIDTH 8 0
BBX 8 11 1 0
BITMAP
18
10
33
03
CE
CC
CC
CC
CC
FC
F6
ENDCHAR
STARTCHAR 1EEA
ENCODING 7914
SWIDTH 576 0
DWIDTH 8 0
BBX 8 12 1 0
BITMAP
60
33
C7
C6
C6
C6
C6
C6
C6
CE
FC
7C
ENDCHAR
STARTCHAR 1EEB
ENCODING 7915
SWIDTH 576 0
DWIDTH 8 0
BBX 8 11 1 0
BITMAP
60
20
33
03
CE
CC
CC
CC
CC
FC
F6
ENDCHAR
STARTCHAR 1EEC
ENCODING 7916
SWIDTH 576 0
DWIDTH 8 0
BBX 8 14 1 0
BITMAP
30
38
18
23
C7
C6
C6
C6
C6
C6
C6
CE
FC
7C
ENDCHAR
STARTCHAR 1EED
ENCODING 7917
SWIDTH 576 0
DWIDTH 8 0
BBX 8 11 1 0
BITMAP
38
08
13
03
CE
CC
CC
CC
CC
FC
F6
ENDCHAR
STARTCHAR 1EEE
ENCODING 7918
SWIDTH 576 0
DWIDTH 8 0
BBX 8 12 1 0
BITMAP
7C
8B
C7
C6
C6
C6
C6
C6
C6
CE
FC
7C
ENDCHAR
STARTCHAR 1EEF
ENCODING 7919
SWIDTH 576 0
DWIDTH 8 0
BBX 8 10 1 0
BITMAP
7C
5B
03
CE
CC
CC
CC
CC
FC
F6
ENDCHAR
STARTCHAR 1EF0
ENCODING 7920
SWIDTH 576 0
DWIDTH 8 0
BBX 8 14 1 -3
BITMAP
03
C7
C6
C6
C6
C6
C6
C6
CE
FC
7C
00
30
30
ENDCHAR
STARTCHAR 1EF1
ENCODING 7921
SWIDTH 576 0
DWIDTH 8 0
BBX 8 12 1 -3
BITMAP
03
03
CE
CC
CC
CC
CC
FC
F6
00
30
30
ENDCHAR
STARTCHAR 1EF2
ENCODING 7922
SWIDTH 576 0
DWIDTH 8 0
BBX 8 12 0 0
BITMAP
30
18
E3
67
66
36
3C
3C
18
18
18
18
ENDCHAR
STARTCHAR 1EF3
ENCODING 7923
SWIDTH 576 0
DWIDTH 8 0
BBX 8 14 0 -3
BITMAP
30
18
08
80
63
66
76
36
3C
1C
18
18
70
60
ENDCHAR
STARTCHAR 1EF4
ENCODING 7924
SWIDTH 576 0
DWIDTH 8 0
BBX 8 13 0 -3
BITMAP
E3
67
66
36
3C
3C
18
18
18
18
00
18
18
ENDCHAR
STARTCHAR 1EF5
ENCODING 7925
SWIDTH 576 0
DWIDTH 8 0
BBX 8 10 0 -3
BITMAP
E3
66
76
36
3C
1C
18
18
73
63
ENDCHAR
STARTCHAR 1EF6
ENCODING 7926
SWIDTH 576 0
DWIDTH 8 0
BBX 8 14 0 0
BITMAP
18
1C
0C
10
E3
67
66
36
3C
3C
18
18
18
18
ENDCHAR
STARTCHAR 1EF7
ENCODING 7927
SWIDTH 576 0
DWIDTH 8 0
BBX 8 14 0 -3
BITMAP
1C
04
0C
80
63
66
76
36
3C
1C
18
18
70
60
ENDCHAR
STARTCHAR 1EF8
ENCODING 7928
SWIDTH 576 0
DWIDTH 8 0
BBX 8 12 0 0
BITMAP
3E
44
E3
67
66
36
3C
3C
18
18
18
18
ENDCHAR
STARTCHAR 1EF9
ENCODING 7929
SWIDTH 576 0
DWIDTH 8 0
BBX 8 13 0 -3
BITMAP
3E
6C
80
63
66
76
36
3C
1C
18
18
70
60
ENDCHAR
STARTCHAR 2009
ENCODING 8201
SWIDTH 576 0
DWIDTH 8 0
BBX 0 0 0 0
BITMAP
ENDCHAR
STARTCHAR 2010
ENCODING 8208
SWIDTH 576 0
DWIDTH 8 0
BBX 4 2 2 3
BITMAP
F0
F0
ENDCHAR
STARTCHAR 2011
ENCODING 8209
SWIDTH 576 0
DWIDTH 8 0
BBX 4 2 2 3
BITMAP
F0
F0
ENDCHAR
STARTCHAR 2013
ENCODING 8211
SWIDTH 576 0
DWIDTH 8 0
BBX 6 2 1 3
BITMAP
FC
FC
ENDCHAR
STARTCHAR 2014
ENCODING 8212
SWIDTH 576 0
DWIDTH 8 0
BBX 8 2 0 3
BITMAP
FF
FF
ENDCHAR
STARTCHAR 2018
ENCODING 8216
SWIDTH 576 0
DWIDTH 8 0
BBX 2 5 3 5
BITMAP
40
C0
80
C0
C0
ENDCHAR
STARTCHAR 2019
ENCODING 8217
SWIDTH 576 0
DWIDTH 8 0
BBX 2 5 3 4
BITMAP
C0
C0
40
40
80
ENDCHAR
STARTCHAR 201A
ENCODING 8218
SWIDTH 576 0
DWIDTH 8 0
BBX 2 5 3 -3
BITMAP
C0
C0
40
40
80
ENDCHAR
STARTCHAR 201C
ENCODING 8220
SWIDTH 576 0
DWIDTH 8 0
BBX 6 5 1 5
BITMAP
64
48
C8
EC
EC
ENDCHAR
STARTCHAR 201D
ENCODING 8221
SWIDTH 576 0
DWIDTH 8 0
BBX 6 5 1 4
BITMAP
EC
EC
64
4C
C8
ENDCHAR
STARTCHAR 201E
ENCODING 8222
SWIDTH 576 0
DWIDTH 8 0
BBX 6 5 1 -3
BITMAP
EC
EC
64
4C
C8
ENDCHAR
STARTCHAR 2020
ENCODING 8224
SWIDTH 576 0
DWIDTH 8 0
BBX 7 12 1 -2
BITMAP
30
30
10
FE
92
10
10
30
30
30
30
30
ENDCHAR
STARTCHAR 2021
ENCODING 8225
SWIDTH 576 0
DWIDTH 8 0
BBX 7 12 1 -2
BITMAP
30
30
10
FE
92
30
30
30
DE
FE
10
30
ENDCHAR
STARTCHAR 2022
ENCODING 8226
SWIDTH 576 0
DWIDTH 8 0
BBX 4 5 2 2
BITMAP
70
F0
F0
F0
20
ENDCHAR
STARTCHAR 2026
ENCODING 8230
SWIDTH 576 0
DWIDTH 8 0
BBX 7 2 1 0
BITMAP
B6
B6
ENDCHAR
STARTCHAR 2030
ENCODING 8240
SWIDTH 576 0
DWIDTH 8 0
BBX 8 10 0 0
BITMAP
20
50
D0
50
60
FF
77
D9
D9
76
ENDCHAR
STARTCHAR 2032
ENCODING 8242
SWIDTH 576 0
DWIDTH 8 0
BBX 2 3 3 7
BITMAP
C0
C0
80
ENDCHAR
STARTCHAR 2033
ENCODING 8243
SWIDTH 576 0
DWIDTH 8 0
BBX 5 3 2 7
BITMAP
D8
F0
B0
ENDCHAR
STARTCHAR 2039
ENCODING 8249
SWIDTH 576 0
DWIDTH 8 0
BBX 3 5 3 2
BITMAP
60
C0
C0
C0
60
ENDCHAR
STARTCHAR 203A
ENCODING 8250
SWIDTH 576 0
DWIDTH 8 0
BBX 3 5 3 2
BITMAP
C0
C0
60
C0
80
ENDCHAR
STARTCHAR 2044
ENCODING 8260
SWIDTH 576 0
DWIDTH 8 0
BBX 8 10 0 0
BITMAP
01
03
02
04
08
00
10
20
40
C0
ENDCHAR
STARTCHAR 2052
ENCODING 8274
SWIDTH 576 0
DWIDTH 8 0
BBX 8 12 0 -2
BITMAP
01
63
66
04
0C
08
18
10
30
27
67
C0
ENDCHAR
STARTCHAR 2070
ENCODING 8304
SWIDTH 576 0
DWIDTH 8 0
BBX 4 5 2 6
BITMAP
70
90
90
90
70
ENDCHAR
STARTCHAR 2074
ENCODING 8308
SWIDTH 576 0
DWIDTH 8 0
BBX 4 5 2 6
BITMAP
40
60
A0
F0
20
ENDCHAR
STARTCHAR 2075
ENCODING 8309
SWIDTH 576 0
DWIDTH 8 0
BBX 4 5 2 6
BITMAP
F0
80
F0
10
F0
ENDCHAR
STARTCHAR 2076
ENCODING 8310
SWIDTH 576 0
DWIDTH 8 0
BBX 4 5 2 6
BITMAP
F0
90
F0
90
F0
ENDCHAR
STARTCHAR 2077
ENCODING 8311
SWIDTH 576 0
DWIDTH 8 0
BBX 4 5 2 6
BITMAP
F0
20
20
60
40
ENDCHAR
STARTCHAR 2078
ENCODING 8312
SWIDTH 576 0
DWIDTH 8 0
BBX 4 5 2 6
BITMAP
70
90
60
90
F0
ENDCHAR
STARTCHAR 2079
ENCODING 8313
SWIDTH 576 0
DWIDTH 8 0
BBX 4 5 2 6
BITMAP
E0
90
F0
10
F0
ENDCHAR
STARTCHAR 207F
ENCODING 8319
SWIDTH 576 0
DWIDTH 8 0
BBX 4 5 2 5
BITMAP
B0
D0
D0
D0
D0
ENDCHAR
STARTCHAR 2080
ENCODING 8320
SWIDTH 576 0
DWIDTH 8 0
BBX 4 5 2 -2
BITMAP
70
90
90
90
70
ENDCHAR
STARTCHAR 2081
ENCODING 8321
SWIDTH 576 0
DWIDTH 8 0
BBX 4 5 2 -2
BITMAP
E0
20
20
20
F0
ENDCHAR
STARTCHAR 2082
ENCODING 8322
SWIDTH 576 0
DWIDTH 8 0
BBX 4 5 2 -2
BITMAP
70
90
30
60
F0
ENDCHAR
STARTCHAR 2083
ENCODING 8323
SWIDTH 576 0
DWIDTH 8 0
BBX 4 5 2 -2
BITMAP
70
90
60
10
F0
ENDCHAR
STARTCHAR 2084
ENCODING 8324
SWIDTH 576 0
DWIDTH 8 0
BBX 4 5 2 -2
BITMAP
40
60
A0
F0
20
ENDCHAR
STARTCHAR 2085
ENCODING 8325
SWIDTH 576 0
DWIDTH 8 0
BBX 4 5 2 -2
BITMAP
F0
80
F0
10
F0
ENDCHAR
STARTCHAR 2086
ENCODING 8326
SWIDTH 576 0
DWIDTH 8 0
BBX 4 5 2 -2
BITMAP
F0
90
F0
90
F0
ENDCHAR
STARTCHAR 2087
ENCODING 8327
SWIDTH 576 0
DWIDTH 8 0
BBX 4 5 2 -2
BITMAP
F0
20
20
60
40
ENDCHAR
STARTCHAR 2088
ENCODING 8328
SWIDTH 576 0
DWIDTH 8 0
BBX 4 5 2 -2
BITMAP
70
90
60
90
F0
ENDCHAR
STARTCHAR 2089
ENCODING 8329
SWIDTH 576 0
DWIDTH 8 0
BBX 4 5 2 -2
BITMAP
E0
90
F0
10
F0
ENDCHAR
STARTCHAR 2099
ENCODING 8345
SWIDTH 576 0
DWIDTH 8 0
BBX 4 5 2 -2
BITMAP
B0
D0
D0
D0
D0
ENDCHAR
STARTCHAR 20A1
ENCODING 8353
SWIDTH 576 0
DWIDTH 8 0
BBX 7 12 1 -1
BITMAP
0A
1E
7E
FC
D4
D4
E8
E8
F8
7C
7C
60
ENDCHAR
STARTCHAR 20A3
ENCODING 8355
SWIDTH 576 0
DWIDTH 8 0
BBX 8 10 0 0
BITMAP
7F
7E
60
60
7E
7E
60
F8
F8
60
ENDCHAR
STARTCHAR 20A4
ENCODING 8356
SWIDTH 576 0
DWIDTH 8 0
BBX 8 10 0 0
BITMAP
1C
3F
73
70
FC
70
FC
60
FE
FE
ENDCHAR
STARTCHAR 20A6
ENCODING 8358
SWIDTH 576 0
DWIDTH 8 0
BBX 8 10 0 0
BITMAP
67
67
77
FF
7F
7F
FF
FF
67
67
ENDCHAR
STARTCHAR 20A7
ENCODING 8359
SWIDTH 576 0
DWIDTH 8 0
BBX 9 10 0 0
BITMAP
7C00
7E00
6300
FF80
6300
7E00
7C00
6000
6000
6000
ENDCHAR
STARTCHAR 20A9
ENCODING 8361
SWIDTH 576 0
DWIDTH 8 0
BBX 8 10 0 0
BITMAP
C9
DB
DB
FF
FF
7F
FF
FF
76
66
ENDCHAR
STARTCHAR 20AB
ENCODING 8363
SWIDTH 576 0
DWIDTH 8 0
BBX 7 12 1 -2
BITMAP
0C
3E
0C
7C
CC
CC
CC
CC
CC
74
00
FC
ENDCHAR
STARTCHAR 20AC
ENCODING 8364
SWIDTH 576 0
DWIDTH 8 0
BBX 8 10 0 0
BITMAP
06
1F
38
30
FC
30
FC
30
3F
0F
ENDCHAR
STARTCHAR 20AD
ENCODING 8365
SWIDTH 576 0
DWIDTH 8 0
BBX 8 10 0 0
BITMAP
63
67
66
6C
FF
FF
6C
6E
66
67
ENDCHAR
STARTCHAR 20B1
ENCODING 8369
SWIDTH 576 0
DWIDTH 8 0
BBX 9 10 0 0
BITMAP
7C00
7E00
E780
6300
E780
7E00
7C00
6000
6000
6000
ENDCHAR
STARTCHAR 20B2
ENCODING 8370
SWIDTH 576 0
DWIDTH 8 0
BBX 8 12 0 -1
BITMAP
18
1C
7E
6F
CB
C8
CF
CB
EB
7F
3D
18
ENDCHAR
STARTCHAR 20B5
ENCODING 8373
SWIDTH 576 0
DWIDTH 8 0
BBX 8 12 0 -1
BITMAP
04
1C
7E
6F
EB
E8
F0
F3
F3
7E
3C
20
ENDCHAR
STARTCHAR 20B9
ENCODING 8377
SWIDTH 576 0
DWIDTH 8 0
BBX 7 10 1 0
BITMAP
FE
FE
18
FE
18
F8
E0
60
70
3C
ENDCHAR
STARTCHAR 20BA
ENCODING 8378
SWIDTH 576 0
DWIDTH 8 0
BBX 8 10 0 0
BITMAP
60
64
78
70
E8
F8
63
E7
7E
7C
ENDCHAR
STARTCHAR 20BC
ENCODING 8380
SWIDTH 576 0
DWIDTH 8 0
BBX 8 11 0 0
BITMAP
08
1C
7E
EB
CB
CB
CB
CB
CB
CB
C3
ENDCHAR
STARTCHAR 20BD
ENCODING 8381
SWIDTH 576 0
DWIDTH 8 0
BBX 8 10 0 0
BITMAP
7C
7E
67
63
67
FE
60
F8
F8
60
ENDCHAR
STARTCHAR 2113
ENCODING 8467
SWIDTH 576 0
DWIDTH 8 0
BBX 6 10 1 0
BITMAP
38
7C
64
64
64
68
F0
60
64
78
ENDCHAR
STARTCHAR 2116
ENCODING 8470
SWIDTH 576 0
DWIDTH 8 0
BBX 8 10 0 0
BITMAP
D8
D8
F8
FA
FD
FD
FD
DD
DA
DF
ENDCHAR
STARTCHAR 2117
ENCODING 8471
SWIDTH 576 0
DWIDTH 8 0
BBX 8 10 0 0
BITMAP
1C
62
79
B7
B7
BD
B1
B1
42
3C
ENDCHAR
STARTCHAR 2122
ENCODING 8482
SWIDTH 576 0
DWIDTH 8 0
BBX 8 6 0 4
BITMAP
FB
FB
5B
57
57
57
ENDCHAR
STARTCHAR 2126
ENCODING 8486
SWIDTH 576 0
DWIDTH 8 0
BBX 8 10 0 0
BITMAP
1C
7E
67
E3
E3
E3
E3
63
E7
F7
ENDCHAR
STARTCHAR 212E
ENCODING 8494
SWIDTH 576 0
DWIDTH 8 0
BBX 8 10 0 0
BITMAP
18
66
63
E3
E3
FF
E0
E0
63
3E
ENDCHAR
STARTCHAR 2202
ENCODING 8706
SWIDTH 576 0
DWIDTH 8 0
BBX 8 10 0 0
BITMAP
38
3E
06
07
3F
67
E7
67
7E
3C
ENDCHAR
STARTCHAR 2205
ENCODING 8709
SWIDTH 576 0
DWIDTH 8 0
BBX 7 7 1 1
BITMAP
7E
CC
9E
B6
E4
FC
B0
ENDCHAR
STARTCHAR 2206
ENCODING 8710
SWIDTH 576 0
DWIDTH 8 0
BBX 8 10 0 0
BITMAP
1C
3C
3C
3C
36
66
66
67
FF
FF
ENDCHAR
STARTCHAR 220F
ENCODING 8719
SWIDTH 576 0
DWIDTH 8 0
BBX 8 11 0 -1
BITMAP
FF
FF
66
66
66
66
66
66
66
66
66
ENDCHAR
STARTCHAR 2211
ENCODING 8721
SWIDTH 576 0
DWIDTH 8 0
BBX 8 11 0 -1
BITMAP
FF
FF
70
38
1C
0E
1C
38
30
7F
FF
ENDCHAR
STARTCHAR 2212
ENCODING 8722
SWIDTH 576 0
DWIDTH 8 0
BBX 7 2 1 3
BITMAP
FE
FE
ENDCHAR
STARTCHAR 2215
ENCODING 8725
SWIDTH 576 0
DWIDTH 8 0
BBX 7 10 1 0
BITMAP
02
04
08
08
10
30
20
40
40
80
ENDCHAR
STARTCHAR 2219
ENCODING 8729
SWIDTH 576 0
DWIDTH 8 0
BBX 2 2 3 3
BITMAP
C0
C0
ENDCHAR
STARTCHAR 221A
ENCODING 8730
SWIDTH 576 0
DWIDTH 8 0
BBX 8 13 0 -2
BITMAP
03
03
03
02
02
26
E6
B6
34
34
3C
1C
1C
ENDCHAR
STARTCHAR 221E
ENCODING 8734
SWIDTH 576 0
DWIDTH 8 0
BBX 8 5 0 1
BITMAP
77
99
99
FF
22
ENDCHAR
STARTCHAR 222B
ENCODING 8747
SWIDTH 576 0
DWIDTH 8 0
BBX 4 15 2 -4
BITMAP
10
60
60
60
60
60
60
60
60
60
60
20
20
60
C0
ENDCHAR
STARTCHAR 2248
ENCODING 8776
SWIDTH 576 0
DWIDTH 8 0
BBX 8 5 0 1
BITMAP
79
8F
00
79
8F
ENDCHAR
STARTCHAR 2260
ENCODING 8800
SWIDTH 576 0
DWIDTH 8 0
BBX 7 7 1 0
BITMAP
0C
FE
FE
30
FE
FE
C0
ENDCHAR
STARTCHAR 2264
ENCODING 8804
SWIDTH 576 0
DWIDTH 8 0
BBX 8 7 0 0
BITMAP
07
7E
C0
7E
07
FF
FF
ENDCHAR
STARTCHAR 2265
ENCODING 8805
SWIDTH 576 0
DWIDTH 8 0
BBX 7 7 1 0
BITMAP
E0
FC
06
FC
C0
FE
FE
ENDCHAR
STARTCHAR 25CA
ENCODING 9674
SWIDTH 576 0
DWIDTH 8 0
BBX 6 10 1 0
BITMAP
30
38
78
4C
CC
C4
4C
68
38
30
ENDCHAR
STARTCHAR 27E8
ENCODING 10216
SWIDTH 576 0
DWIDTH 8 0
BBX 4 9 2 -1
BITMAP
10
20
40
C0
C0
40
20
30
10
ENDCHAR
STARTCHAR 27E9
ENCODING 10217
SWIDTH 576 0
DWIDTH 8 0
BBX 4 9 2 -1
BITMAP
C0
40
20
10
10
20
60
40
80
ENDCHAR
STARTCHAR FB01
ENCODING 64257
SWIDTH 576 0
DWIDTH 8 0
BBX 7 10 0 0
BITMAP
36
66
60
FE
FE
66
66
66
66
66
ENDCHAR
STARTCHAR FB02
ENCODING 64258
SWIDTH 576 0
DWIDTH 8 0
BBX 7 10 0 0
BITMAP
36
66
66
F6
F6
66
66
66
66
66
ENDCHAR
STARTCHAR FEFF
ENCODING 65279
SWIDTH 0 0
DWIDTH 0 0
BBX 0 0 0 0
BITMAP
ENDCHAR
ENDFONT
